/* XPM */
static char *c7f95a6e5da4484ca0e941cd2b12fb13Q3xuq59Ju0oq1Hrz[] = {
/* columns rows colors chars-per-pixel */
"64 64 88 1 ",
"  c #403B31",
". c #423D33",
"X c #443F35",
"o c #4B473B",
"O c #374C4E",
"+ c #3A4E50",
"@ c #425557",
"# c #495B5A",
"$ c #4D5E5C",
"% c #605B4E",
"& c #6C6B69",
"* c #6E6D6B",
"= c #6D756C",
"- c #71706E",
"; c #7F796F",
": c #767676",
"> c #797671",
", c #7D7A75",
"< c #7B7B7B",
"1 c #7C7B79",
"2 c #7E7D7B",
"3 c #7E7E7E",
"4 c #8E734A",
"5 c #8D744E",
"6 c #91774F",
"7 c #897453",
"8 c #8A7554",
"9 c #8C7756",
"0 c #89745A",
"q c #8B775C",
"w c #967E56",
"e c #867661",
"r c #887864",
"t c #837869",
"y c #857A6B",
"u c #867C6D",
"i c #827B72",
"p c #857E75",
"a c #807D78",
"s c #938364",
"d c #9F8C67",
"f c #82817F",
"g c #84817C",
"h c #9A917C",
"j c #A69978",
"k c gray51",
"l c #848581",
"z c #888985",
"x c #8B9083",
"c c #91918A",
"v c #96968A",
"b c #94948D",
"n c #99988C",
"m c #9B9A92",
"M c #9E9D95",
"N c #AFA381",
"B c #A5A396",
"V c #A8A699",
"C c #A4AA98",
"Z c #AAA89B",
"A c #AAAA9E",
"S c #ACAA9D",
"D c #B6AF92",
"F c #BCB89C",
"G c #AEAEA2",
"H c #B0AEA3",
"J c #B2B1A5",
"K c #B4B3A7",
"L c #B6B7AB",
"P c #B7B8AC",
"I c #B9BAAE",
"U c #B7BCB1",
"Y c #B8BCB0",
"T c #C2C0A6",
"R c #CAC7AB",
"E c #CECCAF",
"W c #D5D2B9",
"Q c #DEDBBF",
"! c #E4E0C3",
"~ c #E5E2C5",
"^ c #E8E4C7",
"/ c #EAE7CA",
"( c #F2EFD2",
") c #F5F2D5",
"_ c #FBF7DC",
"` c #FCF8DE",
"' c #FDFADE",
"] c #FFFBE0",
/* pixels */
"::::::<<<<<<::3<::33<3333k3<<3333<:<3k33<<<<3<<<<<<33<3<::<:::3<",
"::::::<:<:::3<33<<k<<<3<k3:<<33kk3<<33<<<<33:3<<::3<<<3:::<:::<<",
"::::::::<::<33<<3k3:::<33:<<3<<3<33<3<33<3333<:<<::<::<:::::::::",
":::::::::::<k33:3<3<::<k3:3<33<<33<<3:<k33<kk<<3<<:<3<3<<<::::::",
"::::::::<<:<<<<33<<::<:3k<<<:3<3kk333<33<k3<<:3<<<<3<<:<:<::::::",
":::::::<<33<<::<333<<<<3<:<333333<3<3333333kk3<3:3<<:::<<<<:::::",
"::::::<:::333<<<33<:<333<<<33k33k<3333<3k33k3<<3:<<3<::<::<<::::",
"::::::::<:33<<3<<<::<<3:<<<33<<aa<k33k333k33<3k3:<<3<<<3::::::::",
":::::::<::<<:<<<3<:<k3<3<:<:<1t89t33<3333kk3<kkk<<::<:<<::::::::",
"::::3::<::33:<<<<<<<k<3k3<<<i044440i3k3<3k333<:<<333<::<<<::::::",
":<<::<<<<<3<<<33<3<<<<3kk3ar54444445ra3kk33k3<<::<<<<<:k::::::::",
":::::<:::<<3<33<3<3<<333ft844444444448u33333<33::<:<<<333<:::<<<",
"3::<:<:3333<<:<<<:<<333i0444444444444440p3kk<33<<<<<<<::3<<::<<:",
"<::::::<<kk3<:<3k3<<kgr54444446dd64444445eak<3<<<333<<33<::<::::",
":<:<<<<<<<<::3<<k<<3y94444444sNFFNs44444448y33:<k3<<<<3<:::<::::",
":<<33<<<3<3<<<<<<<i04444444wjDFFFFDjw4444444qi<3k<:<3<3<:<<<::<3",
":<3<<<<<3<<3<<<:,r54444446dDFFRQQRFFDd64444445ea3::<<::::<:::<<3",
":<<::<<<3<:<<33t84444444sNFFTW~~~~WTFFNs44444449y<33<<:<<3:<<:::",
":<<:::::<3:<<i04444444wjFFTW^//////^WTFFjw44444440;<:333<<<3<:::",
"::::33::33<>e54444446jFRRQ(__________(QRRFj64444445e,<<<:<<3<:::",
":<::<3:<33u74444444dDRRW/_''''''''''''_/WRRDd44444448y<<<<<<<<<:",
"3::<::::i04444444wNTRE~_'''/~''''''~/'''_~ERTNw44444440;3<<<::::",
"<<<:::::74444446jFREQ)'''']W=T''_'T=W]'''')QERFj64444448<<33<:::",
":<<<<<<:744444dDRRW/_''''''W@#xxxx#@W]'''''_/WRRDd444448<<<:<<::",
"<:<3<<:<7444wNTRE~)_______'Q$OOOOOO$~'_______)~ERTNw4448<::::<<:",
":<<:<3<<846dDFTE~//////////E#++++++#E//////////~ETFDd648<<<:::::",
"<<::<:3<70hFFTW~~~~~~~~~~~^C++++++++C^~~~~~~~~~~~WTFFh0823<<<<:<",
"<:::<<<1;1nTW~~~~~~~~~~~~~^C++++++++C^~~~~~~~~~~~~~ETn<;333<<<<3",
":::<<k<:3:vQ~~~~~~~~~~~~~~^R$O++++O$R^~~~~~~~~~~~~~~QV3kk33<3<:3",
"3<<:3<::3<Z~~~~~~~~~~~~~~~~~C#OOOO#C~~~~~~~~~~~~~~~~~A3k3<33<<<<",
"3::<<<<333Z~~~~~~~~~~~~~~~~~~Tx==xT~~~~~~~~~~~~~~~~~~J<<<:<<:<3:",
"k<:<:3<333H()))))))))))))))))))(())))))))))))))))))))I3<:3k:<:::",
"<:<::3<<<3J''''''''''''''''''''''''''''''''''''''''''Ykk<k3:<:::",
"::3::<<3kkJ'''''''''''''''''']'__']''''''''''''''''''U<k33:::<<:",
"::<<<::<3<J'''''''''''''''''^Fx==xF^'''''''''''''''''P33k3<3:<::",
"::::::<333K''''''''''''''')D%X    X%D)'''''''''''''''Pk3<<3<:<::",
"::::<<3:<<K'''''''''''''')xX ...... Xx)''''''''''''''P3333<33<:<",
"<:<<<:3<<<K((((((((((((((jX ........ Xj((((((((((((((P3<<<33:3::",
"::::<<k<33Z~~~~~~~~~~~~^To .......... oT^~~~~~~~~~~~~G33<3<<::<:",
"::::33<333V~~~~~~~~~~~~~s ............ s~~~~~~~~~~~~~Jk3<3<::<::",
"<:::<3333kS~~~~~~~~~~~~W% ............ %W~~~~~~~~~~~~G333<<:<<<<",
"<::<:<<<:3S~~~~~~~~~~~^Ro ............ oR^~~~~~~~~~~~G3k3<3<<3k<",
":<:<:3:<<<V~~~~~~~~~~~^To..............oT^~~~~~~~~~~~Jkk<33<33<<",
":<:<:::<<<Z////////////To..............oT////////////J3<:<::::<:",
":<::<<k<<:J___________'Wo ............ oW'___________P<3<<<<::::",
":<:::<<3<3J''''''''''']Wo ............ oW]'''''''''''L<3<<<:::<<",
"::<::<<<:3J''''''''''']Wo ............ oW]'''''''''''P333<<::<<3",
":::<:3<3:<H''''''''''']Wo ............ oW]'''''''''''I33:<<:::<<",
"<<:3::::<:J''''''''''']Wo ............ oW]'''''''''''L<3:::<<:3:",
":::::::<<<K___________'Wo ............ oW'___________L<k3:33::3:",
"::<<<<::<<V////////////To..............oT////////////G33<<3<:<<:",
"<::<<:::<:B~~~~~~~~~~~^To..............oT^~~~~~~~~~~~A3333<:<3<<",
"<<<::::<<:Z~~~~~~~~~~~^To..............oT^~~~~~~~~~~~A<<3<3:3<<<",
":<3<:<33<<B~~~~~~~~~~~^To..............oT^~~~~~~~~~~~G<<3<3:<:::",
"::::::3<<<V~~~~~~~~~~~^To..............oT^~~~~~~~~~~~G<<3:<kk:::",
":::::<33<:V!!~~~!!~!!!~ToXXXXXXXXXXXXXXoT~!!~!!!~!!!~G<:<:kk3::<",
":::::<<3<:lmMMMmmmMmmmmc-*&&*-*-&&**&*--bMmmmmmmmmMmbz<:::33<:33",
"::<<::<<<<33<3k33k33kkk3<3<<kkkk3kk3333k3k3kkk<33<<::<<3:<<3::<<",
":::::<::<<<<<k<kkkk3kk3<<k33kkkkk3k3k3<k<3<kkk33<3:<:<33::<:<<<<",
"::::::::::<3kk:kk3k3k<k<<k3<33kkk33333<<<<33333<33<<<<::::<<:::<",
"<:::<<<<:<333k<kk<3<<<3k<3333kkk3<k3kk33<<kk3<<3k3<<:::::<<::::<",
":::::::<3k3<<3<33kk3<3k33k3<3kkkk3<3kkk333kk33<kk3<<::::<<<:<<:<",
"<:::::::333<3k33<33k3kkkk3k<3333kkk33kk3kk<<3<<kk3:3<<:3<<::<:<:",
"k3:::::<<:33<3<<<<<kk3k<3k33<33kkk3<kkk<3<<<<<k3k<:<3<<<<:<<::3<"
};
