/* XPM */
static char *result[] = {
/* columns rows colors chars-per-pixel */
"64 64 4 1 ",
"  c #7B7B7B",
". c gray51",
"X c #7E7E7E",
"o c #767676",
/* pixels */
"oooooo      ooX ooXX XXXX.X  XXXX o X.XX    X      XX X oo oooX ",
"oooooo o oooX XX  .   X .Xo  XX..X  XX    XXoX  ooX   Xooo ooo  ",
"oooooooo oo XX  X.Xooo XXo  X  X XX X XX XXXX o  oo oo ooooooooo",
"ooooooooooo .XXoX X oo .XoX XX  XX  Xo .XX ..  X  o X X   oooooo",
"oooooooo  o    XX  oo oX.   oX X..XXX XX .X  oX    X  o o oooooo",
"ooooooo  XX  oo XXX    X o XXXXXX X XXXXXXX..X XoX  ooo    ooooo",
"oooooo oooXXX   XX o XXX   XX.XX. XXXX X.XX.X  Xo  X oo oo  oooo",
"oooooooo oXX  X   oo  Xo   XX  XX .XX.XXX.XX X.Xo  X   Xoooooooo",
"ooooooo oo  o   X o .X X o o   X. XX XXXX..X ...  oo o  oooooooo",
"ooooXoo ooXXo       . X.X   X ..XXXXX.X X.XXX o  XXX oo   oooooo",
"o  oo     X   XX X    X..XXXX XX    XXX..XX.X  oo     o.oooooooo",
"ooooo ooo  X XX X X  XXX.  XX....X ..X.XXXXX XXoo o   XXX ooo   ",
"Xoo o oXXXX  o   o  XXXXXXX .X.XX.X..X X.X.. XX       ooX  oo  o",
" oooooo  ..X o X.X  ...  XXX.X. X.XX oX.. X. X   XXX  XX oo oooo",
"o o        ooX  .  XX.X.XX...XX.X.X X  X..XXXXo .X    X ooo oooo",
"o  XX   X X       XX X...X..XoX...XX.XXX ..X.X X. o X X o   oo X",
"o X     X  X   o XX X.X.X .XX.X....X X. ...X.X XXoo  oooo ooo  X",
"o  oo   X o  XX X...XX......XX..X....XXX X.X.XX.X XX  o  Xo  ooo",
"o  ooooo Xo  X XXX X..X...XX....X...X.X..XX X X  X  oXXX   X ooo",
"ooooXXooXX o X X XX.X..X..X..X...XX.XXX...X.X .X   X    o  X ooo",
"o oo Xo XX.o o .X XX.X.X.X XXXX..X.X X..XX.X XXXX   XX         o",
"Xoo oooo X   o    XXXXXXX..X..X.XX.XX..  X.X XoXXXX  X  X   oooo",
"   oooooo     oX  oXX.....X X....X....X.X...XX  XX.X XX   XX ooo",
"o      oo    oo   X.XX.....X..XXX.... X.X...X.X X    X     o  oo",
" o X  o oX  X  XXXX.XXX X.... XX ......XX....X.  X  X.o  oooo  o",
"o  o X   o  ..X.X...X.XXX.X............. ..X..X   X.   X   ooooo",
"  oo oX o Xo   XX.... X...XX...X.XX.....X...X.X X XX X  XX    o ",
" ooo      XXX o ...XX.XXXXXX.XXXX..XX..XXXXXX.X.oo   X  XXX    X",
"ooo  . oXo  oo oX XX.. XXXX..XX ...  . .XXX.X.X o   X X..XX X oX",
"X  oX ooX X  oX  ..XX...XXX...XX.. oXX..X...XXX XX  XoX.X XX    ",
"Xoo    XXXXX X   ... .XX.X X..X..XX  X   X.XX.XX..X ..   o  o Xo",
". o oX XXX  XXX..XXX.XX ..XX.......XX.XXXX  .. ..X X..X oX.o ooo",
" o ooX   XX X.XX....X XXXXX....XX X XXXX.X X .X X . .... .Xo ooo",
"ooXoo  X..XXXX.X..XX.XX..X X.. XXXX  XX..X XX.. X . X. .XXooo  o",
"oo   oo X X X  X XX XXX..XoX...X.XXXX ..XXX  .X ooX.. XX.X Xo oo",
"oooooo XXX.  o  X XX  XX X ...XX..XX.......X XXXo . XX.X  X o oo",
"oooo  Xo  .  X XX .. XX X oXX X..X ...XX...XXXXXXXXX.XXXXX XX o ",
" o   oX   . XX.X.X.X XX.XXXXX XXX  X.X X.X.X.XX.Xo ..XX   XXoXoo",
"oooo  . XXX.. XX X. XXX..X... XX.XX XX ..X.XXXX. X  X XX X  oo o",
"ooooXX XXX X. XXXXXX X.XX.X  oXX...X...X  X.XXXXX..X...X X oo oo",
" ooo XXXX..XX..X  ..XXX.XXXX  XXX .....  XX X. X....XXXXX  o    ",
" oo o   oX.X.XXXXX .X..XX XX ...  X.XXXX..XXXX ....XXXX.X X  X. ",
"o o oXo    XXX.X.. XX.X.X.XXXXX.X ... X.X.XXXXXXX....... XX XX  ",
"o o ooo   X  X.X.XX.  X XX XX X..XX..X.XX.X...X  .....X o oooo o",
"o oo  .  oX oX.X.XX. X  . X.XXXXXX.X XX X.  X.X o .XXX X    oooo",
"o ooo  X XX  XXX  o XX   .XX.XX X..XX X  XXX X..  XX   X   ooo  ",
"oo oo   oXXoo  XXX XX XX.  XXXX.XX XXXXXX..XX..X...  XXXX  oo  X",
"ooo oX Xo  o X ... XX...XXX X...XX XXXX....XXXoX.XX X.XXo  ooo  ",
"  oXoooo oXXX o XX XXXXXX.XXX..XX.XXX   X.X  XX..X X   Xooo  oXo",
"ooooooo   ..X oX.  XX..XX  X....X.X..X.X XX  X  ...    .XoXXooXo",
"oo    oo   XX.XX. X...XXXXX.X...XX .. .....X  XX.X ooXXX  X o  o",
" oo  ooo ooo X X  XXXX.XXXX.XX..X.XXXX.X.XXXXXX X.  ooXXXX o X  ",
"   oooo  oXX  XX oX.XX..XXX.XX..XXX ..X...X.XXXXo o  o  X XoX   ",
"o X o XX  o oX.X.X X ..X X.XXX...X......X.XX X..XXoX    X Xo ooo",
"ooooooX      .  ....X.X..XXXX X.XXX XX..... XXX.oXXXo   Xo ..ooo",
"ooooo XX o  X...  .XXX....XX XX.XX XX.....XX.X X.XXoo  o o..Xoo ",
"ooooo  X ooX...XXX.XXXXX.X  X.X.  XX X.... XXXXXX . o  oooXX oXX",
"oo  oo    XX X.XX.XX...X X  ....X..XXXX.X.X... XX  oo  Xo  Xoo  ",
"ooooo oo     . ....X..X  .XX.....X.X.X . X ...XX Xo o XXoo o    ",
"oooooooooo X..o..X.X. .  .X XX...XXXXX    XXXXX XX    oooo  ooo ",
" ooo    o XXX. .. X   X. XXXX...X .X..XX  ..X  X.X  ooooo  oooo ",
"ooooooo X.X  X XX..X X.XX.X X....X X...XXX..XX ..X  oooo   o  o ",
" oooooooXXX X.XX XX.X....X. XXXX...XX..X..  X  ..XoX  oX  oo o o",
".Xooooo  oXX X     ..X. X.XX XX...X ... X     .X. o X    o  ooX "
};
