/* XPM */
static char *c1ead64be9c34a86c97ae05ee32ffcd3tqt9tCK8KuwoSKyK[] = {
/* columns rows colors chars-per-pixel */
"64 64 40 1 ",
"  c #020202",
". c #070707",
"X c #0C0C0C",
"o c #111111",
"O c #161716",
"+ c #1B1B1B",
"@ c #1D1D1D",
"# c gray13",
"$ c gray14",
"% c gray17",
"& c #2F2F2F",
"* c gray20",
"= c #343434",
"- c gray22",
"; c #3F3F3F",
": c gray26",
"> c #464646",
", c #494949",
"< c #4A4B4B",
"1 c #4F4E4E",
"2 c #515151",
"3 c gray34",
"4 c #5A5A5A",
"5 c #5D5D5D",
"6 c #626362",
"7 c gray40",
"8 c DimGray",
"9 c gray43",
"0 c gray45",
"q c #747474",
"w c #757474",
"e c #747574",
"r c #777777",
"t c gray47",
"y c #7B7B7B",
"u c #7C7C7C",
"i c #7E7E7F",
"p c gray50",
"a c #808080",
"s c #838383",
/* pixels */
"yuyrryrryuyyuuyyyyyuuyyyuuuuuyyyuuuuuuaauuuuuuyyyuyrryyyyyr00rr0",
"yyyrrrrrryuyuuyyyyyyuuuyuuuuuyyuaauuuyuauuuyyuuyyuyyyyryyyr00rr0",
"yrrrrrr00ryryyyryyyyuuuuyuuuuuuuauyuuuyuuuyyyuauuuuuyrryrrrr00r0",
"rr0rrrrrryyyyyrryyyuuuuuuuyuuuuuuyuuuuyyauyyyuuuuyuuuyrrrrrrrr00",
"rrr0rryyyyyyyyyyyyyuuuuuuuyuuyuauuuuyyyyauyyryyuuuuuuyryyrrrrrr0",
"rrrrrryyyyrrryuyyuuyuuuuuuuuuuuauuuuuyyyuuyyyyyuuyyyyyyyyrrrr0r0",
"rr00ryyyyyrrryyyyyyuaauuuuuuuuuuuuuauuyyuuuuyyuuuyryyuuyyyrr0000",
"yr000rrryyryyyyyyuyyuauaauuuuuuuuuuuuyyyyuuurryuuyyyuuyrrrrrrr00",
"rrrr0rrryyyyyyyyuaauuaaaauuuuuuuuuyuuuyyyyuuyyyyyyyyyuyrrrrrrrr0",
"rr0000rryyrryyyyuuuuuuaauuuuuuuuauuuuyyyuuuuuyyyyyyyyuyrrrrryrrr",
"000000rryyrruuuyyyyyuauaaaauuuuuuauuuyyuauuuuyyuyuyyyuyyyyyyyrrr",
"rryyrrryuuyyyyyyyyyyuauuaaauuuuuuuuuuuuuauuyyyuuuuuyyuyyyyyyrrrr",
"rryyrryyyyyyyyyyyyuuuaauuuuaaauaaaaauuuuauuuyyyyyyyyyuuuyyyrrrrr",
"rryrrrryyyyyuuuyyyuuuauuauuuaaaauaaauuuuuuaauyyuuyyyyuauyyrrrrry",
"rrrrrrryyuuyyuuuuyuuuuuaauyyuuaauaaauuuuuaaauuuuuuuyyuuuyyrrrryr",
"yyrryyyyyuuuyyyauyuaauaauuyuuuaaaauuaaauaaauuuuuyyuuyyyyyyyyyyyy",
"uuyrrryyyyyyyyyuuuuaauaauuuuuaaaaauuaaaaaaauuuuuyyyyyuyuuyyyyyyy",
"yyryyryyyyryyyyuuuuaauaauuuuuaaaaauaaaaaaaaauuauyyuyyyyuuyyyryuy",
"rrryyyyyyuyyyuuuuuuuuuaaauaaaaaaaaaaaaaaaaaaaaaauyr90ryuyrrrrryy",
"0rrryuyyyuuyyyuuyuuuuuaaaaauaaaaaaaaaaaaaaaaauuur6>:5ruuyrryyrrr",
"0ryyyuyyyyyuuyyyuuuuuaaaaauuaaaaaaauauuaaaaaaay81%o#3yuuyryurrrr",
"rrryyyyuyyuuyyyuuuuyuaar86668ruuaaaauuuauaauur4=+. $5yuuyryyrrry",
"rrrryyyyyyuuyuaauyuuua01&$$$&;<48ruauuaaur0981#.   @3ryyrrrrryyy",
"rrryyyyyyuuuuuuuuyuuay1@.   .Xo@&>3566773-=-&+.    X-8yyrryyyyyy",
"ryyyrryyyyuuuyyuyuaau6%.        .oO@$%%$+..X.      .#3yyyyyyyyyr",
"0ryyrryyyyyuuuyyyuau7=X              ..            o&3yyyyyyyyyr",
"rrryyyyyyyuuuuuyyuu7*o.                            X#2yyyyyyrrry",
"yyyyyyuuuyuyyyyyyy7*@&#.                           .@2yyyyyyrrry",
"uyyuuuuuuuyyyyyyy7*@:7>o                        XOO#>9yyyyuyrrrr",
"yyyyuuuuauyyuuur5*@:9u4#.                      o-2239yyuyryuyrry",
"ryyyyyyyuuuuy081&#:9ua6*+X                    X-8yyyuuuuuyyyyyyy",
"ryyyyy0766664>&#&10auu6-%#X                   O2yuuuuuuuuyyyyryy",
"rrryyy6-&&&&&$#-5ruauy5-%%#X                .X+2uaaauuuuuuuurryu",
"rryyrr6>---;<249yuaaur2*%%%+.    .X.      o$##$<ruauuuuuuuuyryyy",
"0ryryyyr009ryuuyuuaar4-%%**+.  X$->;=*%o X-5>%%;7yyuuuuuuyrrryyr",
"rrryyyyuuaauaauyyuau7;%*;1-o .+-6ryyr94$.%5y6-%*20yyyuuuuyyrryrr",
"yrryyyuuuauuuuuuuuuu6-*186&..#10aauuar1++1rur3*%;7uyyuuuyyyyrrrr",
"yyyyuuuuuuuuauyuuuuu6-;8u9-XX-9uaauuu8&o-9uuu91**2ruyuuyyyuyyyrr",
"rryyyuuyuuuuuuyyaauu6->0ay6*o%4ruuuuy2+@4uauuu8;%-20uuuuyuuyyyrr",
"0ryryyuuuauuuuauaauu6--4yau6%o&5uuyyr;X@5aauuar2**>8auuuuuuuyrrr",
"yyyyrryuuaaauaaaauua92>30uay4--5yuuy02=;6uuuuau9338yuuuuauuuyrrr",
"yuuyyyyuuuuuuaaaauuuur0ruuaaur0ruaauyr00raaaaauuyyuaaaauyuuyrrrr",
"yuuuuuuuuaaaaaaaauuuuuaaaauuaauyuaaauuauuaaaauuuaaaaauuyyyyyrrrr",
"yyyyyyyyyuaaaaauyuuaauaauuuaaauuaauuuuuauuauuuuaaaauuuuyyyyyrrrr",
"yyrrryyyyuuaaaayyuaaauaauuauaaaaauuuauuuuuuuuauaaaayyuuyyyyyyrrr",
"yyrrryyyuuuuuauyuaaauuaauuuuuaaauuuuauuuuyuuuuuuuuuyyuuyuuuyyrrr",
"yyyrryyyuuuyuuuuaaaauuaauuuuauuuuuuuauuuuuuuuuuuuuuyyyuyyuyyrrrr",
"yyyrryyyuuuuyuuaauuauuaaauuuuuuuaaaauuuuaauuuuuaauyyryuyyyyyyyyr",
"yyrryyyryuuuuuuuauuuuuaauuuuuuuaaaaauuuuaaauuuuaauyyyyyyyyrryyyy",
"ryyyyyyyuuyyyuuauuuuyuauuuuuaaaauaaaauuuaaaauuuuayyyuauyyrrrryrr",
"0ryryuuyuuuyyuaauuuyyuaauauuauuaaaaaauuuuaaaauuuauuuuuuyyrrrrrrr",
"rryyyyuuuuuyyyuauuuuuuuaaauuauuaaaaaaauuuuaaaauuuuuuyyryyrryyyrr",
"yyuuyyuuuyyyyyuuuuuuaauaaaaauuuuaaauaauuaaauuauyyuyyyyyyyrrrrrry",
"yyyyyyyuuyyyyyyuuaauuuaaaaaaauuuaaauaaauuaauuuyuuuuyyuyyyyyrryyr",
"rrryuyyyuyyyyuuuuaauuuaaaaaauuuaaauuuuaauaauuaaaauuyyyyyyuyrryrr",
"yrryauyyyyyryuuuuauuuuaaaaauuuuuaauuuuaaaauuaaauuuuuyyyyyuyrrrrr",
"uyyyuuuyrryrruuuauuaauuaaaauuuuuaaauuuuaaauuaauuuaaauyrruuyrrrr0",
"yurryuyryyyrryyyuuaaauuuaaauuaauaaaauyuuuuaaaaaauaauuuyyyuyyryr0",
"yyyryyrryuuyryyyuuaaauuuaauaaaaaaaaauuuuuuaaaaaaauuuyuyyyyyyrrrr",
"yyyyryyryyyyyyuuuuaaauuyuuuaaaaaaaaauuauyuuaaaaaauuauuyyyryyrrr0",
"yrrrryyrrrryyyyuuuuuuauyyuuaaaauaaaauuuuuuuuuuuaauuaauyrryryyrrr",
"yrrrryyyyrrrryyuauuuaauuuaaaauuaaaaauuauuauyuuauauuauuuyyyryyr0r",
"rryyyyyyyyrryyyaauuuuuaaaaaauuuaaaaauuaaaaaauaauuuuayuuuyrrrrr0r",
"ryyryyyyuyyyyyyuauuyyyuuuaaauuaaaaauuuaaaaaaauuuuuuuyuuyyr00rrry"
};
