/* XPM */
static char *_da05cd4e823427bf9f0021db6d01c2cEWDcM1bN7AKJ77S3[] = {
/* columns rows colors chars-per-pixel */
"64 64 256 2 ",
"   c #562811",
".  c #7A2813",
"X  c #753526",
"o  c #55251B",
"O  c #794532",
"+  c #78564C",
"@  c #7B665B",
"#  c #97371C",
"$  c #8C2F1A",
"%  c #AA3B1A",
"&  c #B23C1C",
"*  c #893925",
"=  c #983A26",
"-  c #9B3B34",
";  c #A33B26",
":  c #AF3A28",
">  c #C93B1B",
",  c #B3461C",
"<  c #8C442A",
"1  c #98442A",
"2  c #9A4837",
"3  c #9A5538",
"4  c #8C4D35",
"5  c #A7462B",
"6  c #B64A2B",
"7  c #BB4C2C",
"8  c #B84628",
"9  c #AB552D",
"0  c #BA542A",
"q  c #A74A36",
"w  c #B74B35",
"e  c #A4543C",
"r  c #AD533C",
"t  c #A95939",
"y  c #B4543C",
"u  c #BB543C",
"i  c #BC5C3C",
"p  c #B75735",
"a  c #B7663B",
"s  c #B06B3C",
"d  c #C54D1B",
"f  c #C54B28",
"g  c #C7562C",
"h  c #D3572D",
"j  c #C74D35",
"k  c #C35433",
"l  c #CB5434",
"z  c #C45B33",
"x  c #CC5C35",
"c  c #C3543B",
"v  c #C45B3C",
"b  c #CC5B3B",
"n  c #CC543B",
"m  c #D35C3B",
"M  c #DA5D3B",
"N  c #D55835",
"B  c #D54B2E",
"V  c #E45C38",
"C  c #C4633C",
"Z  c #CB623C",
"A  c #C86839",
"S  c #D3633C",
"D  c #DC633C",
"F  c #D86839",
"G  c #C9723C",
"H  c #DA733C",
"J  c #D4612D",
"K  c #E4673A",
"L  c #E5753A",
"P  c #ED6636",
"I  c #8A5645",
"U  c #985745",
"Y  c #95554E",
"T  c #A95946",
"R  c #B35B44",
"E  c #BB5C44",
"W  c #B85847",
"Q  c #AF544A",
"!  c #9A654B",
"~  c #9B755A",
"^  c #8F6754",
"/  c #AB6548",
"(  c #BC6443",
")  c #BC654B",
"_  c #BB6B4D",
"`  c #B76846",
"'  c #B9734C",
"]  c #A76855",
"[  c #B76854",
"{  c #A6745B",
"}  c #BA7658",
"|  c #AD734E",
" . c #9A7868",
".. c #937569",
"X. c #A67867",
"o. c #B77A68",
"O. c #B67C74",
"+. c #AD756F",
"@. c #CB5D43",
"#. c #C45B46",
"$. c #D45C42",
"%. c #D95B46",
"&. c #C95B4E",
"*. c #E45B44",
"=. c #C46343",
"-. c #CC6444",
";. c #CC6A44",
":. c #C4634B",
">. c #CB654B",
",. c #CC6B4C",
"<. c #C46A47",
"1. c #D36444",
"2. c #DC6443",
"3. c #D46B44",
"4. c #DC6B44",
"5. c #DB6C4B",
"6. c #D6674A",
"7. c #C97549",
"8. c #D47442",
"9. c #DD7345",
"0. c #D4744B",
"q. c #DB734A",
"w. c #D37C4C",
"e. c #DB7B4B",
"r. c #DA7B44",
"t. c #C86B54",
"y. c #D96C55",
"u. c #C37453",
"i. c #CB7354",
"p. c #C87959",
"a. c #D37553",
"s. c #D37C54",
"d. c #DC7C53",
"f. c #D47C5A",
"g. c #DA7457",
"h. c #E26C44",
"j. c #E66947",
"k. c #E4744B",
"l. c #E37B4C",
"z. c #E87546",
"x. c #F27848",
"c. c #E37454",
"v. c #E77A57",
"b. c #ED7254",
"n. c #C77B65",
"m. c #D67962",
"M. c #C57A6F",
"N. c #E87B67",
"B. c #948874",
"V. c #A7846A",
"C. c #B9866B",
"Z. c #A98878",
"A. c #B98876",
"S. c #AA9477",
"D. c #BA947C",
"F. c #BC966A",
"G. c #B99069",
"H. c #C9854B",
"J. c #D9844B",
"K. c #CA8459",
"L. c #DC8354",
"P. c #D88858",
"I. c #DA935A",
"U. c #E6844B",
"Y. c #E48B55",
"T. c #E78758",
"R. c #F68758",
"E. c #E89459",
"W. c #F3945B",
"Q. c #F1884D",
"!. c #C88567",
"~. c #D78767",
"^. c #D99769",
"/. c #C88A77",
"(. c #D68B74",
"). c #C8977A",
"_. c #D99779",
"`. c #E68966",
"'. c #E69766",
"]. c #F29864",
"[. c #E49779",
"{. c #EB886D",
"}. c #CFA77B",
"|. c #EAA36D",
" X c #99988A",
".X c #AA8B85",
"XX c #A89688",
"oX c #B89989",
"OX c #B99B96",
"+X c #B2918C",
"@X c #BAA48A",
"#X c #BBA495",
"$X c #B9A799",
"%X c #B0A895",
"&X c #B8AAA5",
"*X c #BBB6A5",
"=X c #BBB7B4",
"-X c #AEADA8",
";X c #A89FA2",
":X c #C79886",
">X c #D79885",
",X c #C89B94",
"<X c #CF948A",
"1X c #E59A85",
"2X c #C7A48A",
"3X c #D6A589",
"4X c #C5AD9D",
"5X c #C8A798",
"6X c #D7AA97",
"7X c #C8B39A",
"8X c #D6B499",
"9X c #D2B18B",
"0X c #E6A887",
"qX c #E4AB99",
"wX c #E6B49A",
"eX c #EEB48E",
"rX c #D29EA1",
"tX c #C7ABA6",
"yX c #D4ACA5",
"uX c #C4B4A4",
"iX c #CCBBAD",
"pX c #C6B9A9",
"aX c #DDB3A2",
"sX c #D6B8A9",
"dX c #CDBCB3",
"fX c #C8B8B6",
"gX c #D4BCB3",
"hX c #DCBAB2",
"jX c #D5ABB5",
"kX c #E6B9A7",
"lX c #E6BCB4",
"zX c #D8C4AB",
"xX c #C8C6B8",
"cX c #D7C5B9",
"vX c #CBC6B0",
"bX c #E6C7B9",
"nX c #E8CCB6",
"mX c #D2BFC5",
"MX c #CDCAC4",
"NX c #DBCCC3",
"BX c #D5CAC4",
"VX c #DCD3C3",
"CX c #D9D6C9",
"ZX c #D8D9D7",
"AX c #CED1CB",
"SX c #E5CAC3",
"DX c #E4DACB",
"FX c #E6D5C8",
"GX c #E7DBD6",
"HX c #F5D5C9",
"JX c #D9E3D8",
"KX c #E8E3D8",
"LX c #EEE4D4",
"PX c #E9E9E3",
"IX c #F2EFE9",
"UX c #F7DEE4",
/* pixels */
"' ~.^.'.~.~.(.(._.0X0X)._._._.(.(._.0X3XwXwXwX9XaXzXwX3X*XkX~.~.o.{ /.!.n.) >.6.a.>.1.q.;.( a.g.n.] 4 / ' 7.5.3.4.C ] dXnX0X].q.",
"d.`.Y.e.U.R.e.A J.Y.Y.P.E.E.e.l.9.T.T.9.l.e.9.3.d.w.0.( 4X9X= w h g 7 6 5 ; 5 # * # w =.5 1 . . $ = 5 7 8 f p z C 0 1 #XqXe.z.j.",
"m.f.a.a.0.q.8.0.J.I.P.P.~.I.w.T.L.Y.L.e.U.Y.W.Y.U.E.H 9 OX@Xc k 7 8 8 k k k l k p C u 5 5 . . < 6 8 c 0 8 0 0 b -.8 5 OX6XQ.x.k.",
"8.U.T.e.0 A 3.q.w.E.`.P.P.P.7.L.J.J.E.E.E.U.U.U.v.a.e.Z jXaXN z W ; 6 k l h h D K h h l c % w 7 k Z h.N z 3.m 2.-.f 6 *XnXU.T.e.",
"e.T.`.s.A 0.0.0.w.T.].T.P.L.s.w.L.w.`.L.L.L.0.w.9.s.P.a.SXaX& 7 j 8 n N $.m N l j j $.w * $ = c x S K K D N N *.x m c &XbXq.y.v.",
"p t 1 1 ( w.C <.8.G e.r.r.r.U.Y.T.e.e.G w.Y.w.w.G J.P.s oX9X& 7 , 0 0 , 8 & f 8 & 8 # . = q 5 b h h f f f , , 8 8 g ; 5XkX1 5 5 ",
"..OXtX&XoXZ.X.X.{ { C.C.C.C.C.)._._.)./.)./.C.A.:X:X:X:X-X*X5X.XoX5X#X+XXXB.Z..XoX#X4XiXVXcXcX7X6XaX5XZ.A.:X4X4X:X6X5XxXcXpXdX#X",
"LXKXZXPXCXVXFXNXcXFXHXHXFXSXcXFXFXFXNXDXLXVXDXLXPXDXLXFXiXzXLXDXFXFXCXAXAXNXNXGXnXnXnXnXhXbXhXnXHXVXCXCXLXSXhXsXaXaXlXaXwXnXbXkX",
"R.`.f.w./.fX[.N.5.k.v.L.c.v.d.T.T.v.c.5.oXvXeXeX|.'.'.7.P.'.'.^.P.K.~.X.fX/.'.'.v.z.S b q.4.S 5.9.L c._.VXq.f f N M N 2.4.2.5.4.",
"F F M K ] pX7.f $.j.4.6.5.y.c.k.A g.q.S C.FXI.I.'.I.I.J.P.I.E.I.'.7.s A.NX0XU.x j.z.K h.z.J L K b.L F 7.SXf.-.F 4.4.4.k.5.S 4.4.",
"1.-.c.j.o.dXi.) b 2.1.,.a.i.,.@.g.>.=.-.,XDX^.I.'.I.P.H.H.I.'.I.K.K.s } FX3XJ k.h.K h.4.D F L h.h.F c.0.zX(.c.4.4.F 4.4.D m 4.k.",
"h.q.5.D n.cX' p.-.-.-.f.p.~.m.>.y.>.1.i tXZX_.H.P.P.P.P.Y.P.I.P.H.K.w.9 sX!.d x.K P H D 2.9.j.2.K a.^.J.Z.C.M x.q.;.3.5.3.0.v.T.",
"2.v.5.$.M.xXo.n.y.y.g.m.~.~.t.>.,.;.4.7 D.VXK.H.I.^.P.H.P.H.H.H.w.i.t # 5X/.B K h L h.k.b.h.z.2.I.s.9.K A.yX#.0.3.S 5.5.5.c.T.T.",
"1.7.9 <.] %X~ T k x h.S 0.C k 5.N.-.%.@.A.yX/.p.` ' a a 7._ ` a 9 s 3 ! iX>X8.0 N G h 6 k d d h H F 9.A V.4X] R C C ;.-.=.;.0.8.",
"hX$XoX$XcXBXAXvX,X:X3X:XV.V.C.).A.o.A.A.4XMXKXsX2XA.C.:X2X2X2X8XgXiXxXZXJXCXGXgXSXcXyX+XOX:XD.3X3X6XzXpXvXGXDXMXNXNXBXNXcXgXcXgX",
"BXSXlXpXhXrXcXnXFXKXcXSXcXcXoX$X4XsXiX5XsXBXVXHXDXSXDXDXCXPXJXAXcXvXSXcXzXSXZXKXJXLXJXGXUXCXbXcXdXhXaX5X6X<X>X0X0X0X>X3X1X(.~.i.",
"7 w q : j n 1.%.@.Q T e ^ =X! q i i y t.p.) _ _ :.m.p.[ M.o.O.A.O.o./.o.} [ [ ) T +.+.Z.cX+.' C f.,.-.y e t.m.i.~.y.v.f.f.E u b ",
"7 7 #.u w C i 6 5 - q 5 ..AX!.@.#.R T i.:.>.#.( >.,.:.) _ ) R [ } / R R E R y w w 7 : ! tX+ U `.n.y.g.g.(.!.o.).(.m.m./ } 3 3 ] ",
"C : w q ; b @.j c W &.W +.BX} #.t.[ } ' E :.q R y E ) [ T T e W ) ) Q r r R E v n B f ! -X..C.{.m.t.f.a.6.y.i.!.~.m.i.y w = [ T ",
"p v R 1 u y.u u p ` W r X.iX3 t i.u.f.r W W 1 U ( ) ) [ [ / R R r r q e R R u u c n #.X.tXO.!./._.~.y.:.>.g.p.[ u.[ T W w ) 3XM.",
"n #.R q E R e W Q [ ) 2  .uXe t.g.r U o X U T W n $.#.u y w w c r r - w W w w W f l u X.iX/.} O.n.y.u.!.!.' =.p 1 * X e E m.o.o.",
"# # 5 5 5 $ < = q p 3 X  .iXo.[ [ ]  .@ B.S.| 5 = 2 * < < < * < 2 e 2 1 q q q e q 1 4 ..-X.X{ X. .X. .X.X.] ] ] B.XX4X5X).A. .X.",
".X5X5XXX5XOX+X.XZ.X.%X*XBXAXBXPXPXIXKXGXKXKXMXvXiXpXpX*X%XXXB.XX$XuX*X*XpXpX$X;X-X&X4X*XfXNXVXAXVXVXbXcXnXSXMXGXLXHXHXnXlXnXnXwX",
"bXkXbXnXSXbXcXpXMX8X8XwX1X_.eXeX6XwX6X6X:X:XbXFXcX&XgXtXhXHXbXbXkXaX6XwX3X<XoXiX9X:Xn.f.a.m.A.tX0Xf.~.{.T.~.3XKX0X~.d.-.b b.4.F ",
"4.z.J h.b.v A.xX9X6 8 N l G z.9.H U.r.D m A ' dX>X~.v.T.T.-.Z S K 4.j.5.c.1.~ -X`.0.Z S j.V D ].U.H Q.k.j.P 1.gX0Xc.b.e.R.R.b.k.",
"D M D D V S { FX[.1.i 7 Z A S k.v.v.8.v.e.J.7.oX[.c.d.d.M n Z M 2.3.4.0.H e.A.&X` g.D D D D z.l.h.x.Q.U.9.Q.s.*X'.k.R.r.z.x.4.l.",
"2.S S S L x / cX{.B 0 6 1.q.j.k.x.H H z.A e.,.+X} 8 0 k N N *.V k.q.h.q.l.0.{ uX! :.B N S q.l.z.D x.Q.Q.z.R.a.uX'.W.W.T.v.b.h.k.",
"j.-.-.1.F z [ fXp.f k 7 2.9.9.d.v.e.v.c.q.l.p A.I j B h h D D 4.j.j.c.c.c.>.I OXI R m K 4.-.5.D 3.v.R.x.j.D 5 tX~.].W.R.R.T.R.z.",
"V h D V d x T tXu.8 f N j.H L z.T.H S v 3.=.3 @X+ U %.B N h 6.i j.z.F x.x.Z ] %XI e e.h D 1.S h h h.x.P K x t bX`.a.c.4.,.7.;.F ",
"' ( p 1 3 / I  X:X[ ) n.(.^.^.~.P.a.E 3 e T  .$XZ.B./ 8 0 l n #.#.c <.=.#.( I XX+XA.(.y R ) [ [ a.!.p.` | } oXcXcXiXhXbXcXvXuX$X",
"xXiXiXuXSXdXpX=XZXFXcXBXGXFXVXGXCXCXdXpX7X6XdX*XfX=XxXuX#X2X5X5X#X6XuXpX%X%X4XXXxXCXvXsX5X$XcXcXnXKXFXnXSXbXFXNXLXIXGXGXKXUXUXIX",
"cXA.2X5XA.o.3X!.!.~.!./.o.n.)./.M.A.o.D.F././.C.2X>X3XA.:X_.} S.*X8X0X[._.^.!.o.(.(.`.`.s.|.K.~.~.).(.`.`.v.U.W.T.T.i.~.p.,.W hX",
"sXC.;.` / 7.P.K.u.u.} _ t p 9 5 5 p u.p.t.i.` s p.8.A ` t Z :.^ 4XL.G 0.k.J.H w.8.s.K.~.K.'.P.g.l.T.C q.A G L.{.U.q.q.A a.&.0 zX",
"dX/.i i i.y.t.`.i.(.n.u.~.~.K.,.( !.} } ~.~.' !.K.7.u.n.f.H.t ..5X;.L.L.v.P.T.v.d.w.<.P.P.J.7.`.J.T.T.T.w.e.T.T.d.d.0.G u.=.3.aX",
"xXC.S r.G C 7.i.~.K.u.u.P.K.J.3.>.( t u.t.~.`.s.} i.7.u r t W +.sXG J.Y.w.7.;.s.p.~.p.P.w.7.P._.~.d.q.C p =.z z a ,.5.9.;.q.C ,X",
"$X).0.A G 8.L.a.;.Z g.L.'.'.w.8.1.6 5 f.f.s.w.Y.p.L.e.j 1 t m.{ 4Xw.l.A ;.~.=.f.i.i.<.7.T.q.g.~.u.0.9.l.L.d.k z.e.{.q.e.8.q.p ,X",
"XXV.3 3 _ p C ;.6 $.n 5 9 v 8 8 x % i `.C C C G F h.p 6 <.i.= ~ Z.7.<.( p.[ / / ( 9 ` ' ' i <.` L.e.F h.q.;.0 z.L H F 0 k S 1 D.",
"&X-X$XXXZ.X.V.~ { o.] ~ X.o.X.X.{ { A.:XX.C.o.o.{ [ { V.+.^  .$X$X2X2XS.S.@X@XoXA.D.oX@X$X4X4X@X7X$X2X2X6X5X7X6X>XqX8XgXcX6X5X*X",
"yXzXHXFXFXbXDXGXFXMXAXGXDXDXDXCXCXCXCXGXGXGXCXGXAX X%XXXXX&X$X2X6X8XtXSXsXhXhXjXMXBXgXSXpXdXcXbXbXFXbXhXsXyXhXdXKXSX3X,X,X>X6X:X",
"Y.E.W.E.'.|.}.0X7XvXcX/.m.m.>.&.c.y.y.m.~.n.!./.O.XX] [ 3 p.{.,.J A :.y.S v R Q +XA.2 ,.E u.t.g.g.v.>.,.4.2.6.p.CX3X, f f h k.V ",
"Y.Y.J.Y.].].Y.'.T.2XbX*.h B f j 2.D j.P h.5.-.#.U &X[ h.g.b.1.>.-.1.6.n @.@.E y + ] E ,.t.E =.6.3.c.:.t a 1.Z <.CX8Xt -.k j.R.l.",
"w.Y.E.].E.].'.'.I.V.2XN x N N V b.b.c.g.>.&.,.=.Q =XA.d.3.2.z.S 6.6.b n b b u # + /.{.,.r W >.@.1.@.W ) #.6.5.E tX>Xu i 0 M z.z.",
"J.J.E.].].E.Y.].r.V.C.> M %.N P j.b.v.<.#.>.=.S Q xX/.j.2.6.0.6.1 E v c 6 w r $ +.:Xt.:.2 1 R -.;.-.( ( i 6.,.e 7X(.f v C N L z.",
"Y.U.W.W.W.Y.E.J.Y.oX,Xj m %.%.2.v.b.v.y.@.p y w 2 yX[ j.*.1.y.$.#.>.b j 7 u 5 . ..cXX.W r y =.y.2.6.-.-.-.,._ e vX).:.,.v m k.k.",
"J.E.U.Y.W.W.U.W.G V.:Xn B B V j.4.; y 5 # =.y . + *X{ c N M x v p p 6 6 5 1 * < .XBX..I 2 q q W / / ] } T U Y + 2X! ; w 6 g q.2.",
"3X0X0X[.^._.^.!.C.OX5X_.>X/.} } ` V.Z.+.X.] Y  .fX=XfXxXvXuX#X*XtX#X+X.X+X;X;XxX=XxX*XxX7XZ.B.%X&XAXCXVXxXxXfXfX=XJXiX+X@XS.B.5X",
"IXDXCXGXFXVXcXVXGXZXPXPXPXIXLXJXcXcXGXSXhXyX6X6X2X3X3X3X8XkXwX6XwXwX6X6X6X3X:X:X:X6X3X8XkXyX%XZ.+XgXsX5X,XoX+XoX<X,XqXkXqX/.A.<X",
"_.!.n.(.t.~.[.[.3X5X5X6X>X1X>XrXgX(.=.S 1.#.-.g b Z >.-.Z 4.M S F 2.D D K h N h %.b z i - .XxX] $ = = = ; 5 5 6 w 0 n j : B f ; ",
"<.<.a.<.6 g.4.D 0.1.F V V h n S.zXq.h -.-.S ;.x b ;.=.b $.Z Z m 1.3.-.Z Z Z b b N v m b t .XNXn.; 5 q E e T [ R W [ ) E :.T 2 - ",
"' p.!.} } ~.i.d.:.%.$.*.p k %.%XiXi N 6.6.4.Z 3.<.7.<.6.b z -.n l 7 k z b 1.l $.m @.b @.<. .cX} ; y R W q e T 2 4 } / / [ 3 T ] ",
"6.g.n.o._.!._ <.3 @.f f a 5.c oXsXi l -.Z 2.1.D m b S S N Z v c k x 7 z k 7 g x D S 2.6.C X.xX| 1 / 3 } / U U U U U ] ] / T T U ",
"5.g.<.n.(.} a.-.' i b 4.2.i $ Z.6X( x -.z N S S 1.2.b b b c b j c b c v w c n $.-.g l $.g O.fX[ 4 [ 2 T ] ! ! U 2 2 [ T Q Q 2 T ",
"f b =.p.u.y #.8 c R p N c < X XX5Xq c n l $.v a S x 3.-.i v b M b z 7 6 6 k n j f h g b g { XX{ T / T = 1 q - q q t t 5 q 2 U 5 ",
"n.o.C.A.V.A.A.A.o.O.D./.X.O.#XiXcXoX2X5X7X8X6X2X5X6XsXcXvXvXnX8X2X2XoX2X5XoX2XA./.X.o.o.C.B. XCXMXxXxX*XiXyXtXiXvXfXuX$X$XfXBX$X",
"LXLXLXDXDXKXVXCXKXGXKXcXOXOX$X,X,XaXsXiXpX$XjXoX*XyX6X,X,X,X<X/./.O.:XA.A././.(.V.XX:X} p./.o.(.>X0X>X0XqXqXkX5X).uXcX8XwXkXaXnX",
"E.].].].].'.|.^.).oX] R 5 T a.-.=.;.#.R R e Q 3 ^ o.q $ 1 1 = 3 1 2 [ T T 2 q = 4 :X( g 4.b g g 0 0 f x x i p p 8 ~ 4X~.K S 9 c ",
"x.Q.W.U.W.W.E.E.| D.T ! ! _ t.) c >.) T Q W R e  .M.w q q w r 3 T [ T T Q q 2 = q ,X1.h.8.3.S Z F Z 3.q.F 8.z z 9 O $XP.2.:.N F ",
"Y.Y.U.E.J.E.E.I.} X.[ T U ,.t.W ) ) R W y w #.#. .M.n 7 w w q R T = # 5 q : = . X XX-.S J h K x.L z.z.9.k.h.D j.9 ] 2XL.H A D S ",
"E.Y.U.W.Y.'.'.Y.| X./ 2 q ( t ` / ) ) r t ` ` t ^ O.E 7 w &.) Q 2 q w r q ; .   o ..t -.F D K K F F 4.K z.K J 9.7.n.A.u.F F 2.q.",
"P.E.W.W.E.^.|.|.} V.U e W ,.i E o.[ Q w W R W q ^ ^ = 5 1 1 . $ r q ; - - *   o o @ U / c M D j.z k x D K L L H F A { ] b x.h.H ",
"7.7.<.7.K.K.H.7.! S.U 4 q q 5 &.] * 5 5 q 2 1 = + +.U U 4 I U T < X O 4 O O + + @ B.B.^ / Z p G Z A C <.7.8.l.4.i 9 S.XX! / t s ",
"^ ~ ~ X. . .~ ~ D.%X4X@X2X5X2X#XS.Z. .~ Z.S.@X$X*X=XCXJXKXKXZXCXxXdXBXCXvX4XuX-X#XXXxXMXcX).uXzXdXNXBXxXDXcXSXlX$XiXdX&XpXpX XB.",
"XXZ./.(.>X>X/./.:X,XrX:X6XlXbXKXKXCXcXdXbXlXyXhXyX5XlXcXtX,XtXMXzX5XaX8X}.G.F.2XD.2XuX&XCX8XfXpXvXbXgXsXkX2X2X:X6X2X2X2X7XzX6X>X",
"A.e j > f , & % % & & d B %.M (.c.i <.d.6.M M N -.;.;.s ` i.U @X[.e R T ` !.).D.).!.M.M.C.H.f.( <.<.9 ( p i v c [ ] } T +.O.[ ,."
};
