/* XPM */
static char *_132c809c79e475c8eed1f3e2aa6181aFBM92cxPnLBecGBj[] = {
/* columns rows colors chars-per-pixel */
"64 64 256 2 ",
"   c black",
".  c #040404",
"X  c #282727",
"o  c #B1533E",
"O  c #E16A3E",
"+  c #DA6A44",
"@  c #D4683F",
"#  c #B45842",
"$  c #DA6D4E",
"%  c #BB5C40",
"&  c #C36445",
"*  c #D06D46",
"=  c #D15F3E",
"-  c #D25D37",
";  c #A9533D",
":  c #B06551",
">  c #D67F50",
",  c #0C0908",
"<  c #CF6341",
"1  c #BF6046",
"2  c #D2674A",
"3  c #C46C4E",
"4  c #C27961",
"5  c #E38556",
"6  c #D36F54",
"7  c #CD5836",
"8  c #B9523A",
"9  c #CC5F3F",
"0  c #BC8C7D",
"q  c #E38A54",
"w  c #BA664F",
"e  c #D5633C",
"r  c #B54E34",
"t  c #B96D53",
"y  c #E99059",
"u  c #C35735",
"i  c #D5764A",
"p  c #B96049",
"a  c #B36142",
"s  c #C47952",
"d  c #C4AEA4",
"f  c #C8A087",
"g  c #D98B59",
"h  c #D78756",
"j  c #D4B8AA",
"k  c #DE7B53",
"l  c #C65B37",
"z  c #D9BFAF",
"x  c #DA7852",
"c  c #B15B45",
"v  c #B18975",
"b  c #D19E86",
"n  c #D0B5A6",
"m  c #CD734E",
"M  c #DB915D",
"N  c #CBB0A2",
"B  c #AC4D37",
"V  c #ED794B",
"C  c #C05332",
"Z  c #CA6038",
"A  c #E2CABA",
"S  c #A74732",
"D  c #A2503D",
"F  c #C2755C",
"G  c #CC7658",
"H  c #CBBCAF",
"J  c #C48D73",
"K  c #C45D42",
"L  c #CE7A60",
"P  c #160F0C",
"I  c #A35A45",
"U  c #CB6640",
"Y  c #C47154",
"T  c #A15D49",
"R  c #C3674C",
"E  c #CCAC99",
"W  c #BE9886",
"Q  c #D5AB9C",
"!  c #B07C68",
"~  c #D89B83",
"^  c #BA8171",
"/  c #BE5841",
"(  c #E67B51",
")  c #DE6E45",
"_  c #C75235",
"`  c #CA6C50",
"'  c #BD4E31",
"]  c #E46F3E",
"[  c #C39C8C",
"{  c #A54C37",
"}  c #A85843",
"|  c #C96D43",
" . c #D4A38D",
".. c #C3613E",
"X. c #E16542",
"o. c #98543F",
"O. c #BC7D6A",
"+. c #C7A596",
"@. c #C99277",
"#. c #D3C1B6",
"$. c #D5A797",
"%. c #E28152",
"&. c #E4C4AF",
"*. c #D6714C",
"=. c #D86E41",
"-. c #CB5C3B",
";. c #CC674B",
":. c #CC6349",
">. c #D58D73",
",. c #C88670",
"<. c #DCB7A7",
"1. c #B29688",
"2. c #A05540",
"3. c #A97761",
"4. c #E0A689",
"5. c #BE937A",
"6. c #C0A692",
"7. c #BA5736",
"8. c #DC7250",
"9. c #BA6647",
"0. c #D58257",
"q. c #BA482E",
"w. c #BCA197",
"e. c #B16F5D",
"r. c #C38978",
"t. c #C46A44",
"y. c #875848",
"u. c #CE7E5C",
"i. c #A47D6C",
"p. c #C5B6A6",
"a. c #BEAC9B",
"s. c #C6A898",
"d. c #BE9F8B",
"f. c #E58A65",
"g. c #D37659",
"h. c #E86F46",
"j. c #BB6A4C",
"k. c #372F2B",
"l. c #D67D63",
"z. c #D78464",
"x. c #CE826B",
"c. c #D7C6BC",
"v. c #C5A091",
"b. c #DD643A",
"n. c #A95E43",
"m. c #B97663",
"M. c #C57E64",
"N. c #DF965F",
"B. c #D59477",
"V. c #AF8D81",
"C. c #483933",
"Z. c #BB9385",
"A. c #C0734B",
"S. c #CC9B8E",
"D. c #C79483",
"F. c #E0B5A2",
"G. c #CC9880",
"H. c #AD8577",
"J. c #C08368",
"K. c #DCA991",
"L. c #CDA68E",
"P. c #D5AFA2",
"I. c #C69B84",
"U. c #A5422D",
"Y. c #EB8C53",
"T. c #1A1614",
"R. c #E8734B",
"E. c #DDA18C",
"W. c #DABCA9",
"Q. c #D5A891",
"!. c #532C1F",
"~. c #CF5133",
"^. c #B3846D",
"/. c #AB5E4E",
"(. c #CBA28D",
"). c #953925",
"_. c #9D4C39",
"`. c #D5B39D",
"'. c #AF472E",
"]. c #B49C8C",
"[. c #A26E5C",
"{. c #EC9B5F",
"}. c #E19775",
"|. c #E8965C",
" X c #924E36",
".X c #E3BBA6",
"XX c #E27247",
"oX c #EF8253",
"OX c #AA644A",
"+X c #DCC4B2",
"@X c #BC8675",
"#X c #C48F81",
"$X c #B0907A",
"%X c #9C402E",
"&X c #AD6D4E",
"*X c #D3BCB3",
"=X c #C37E58",
"-X c #B67355",
";X c #E1A178",
":X c #DA5D41",
">X c #E3906D",
",X c #D55635",
"<X c #DF7647",
"1X c #796257",
"2X c #CD7C4D",
"3X c #794937",
"4X c #CE825F",
"5X c #DD7D5D",
"6X c #DDB39A",
"7X c #CA8453",
"8X c #DB8452",
"9X c #E5AF89",
"0X c #D88A66",
"qX c #E5D4C5",
"wX c #EDA06E",
"eX c #806E64",
"rX c #DFBFAB",
"tX c #E38366",
"yX c #D76345",
"uX c #C7573E",
"iX c #D9CCC4",
"pX c #40281F",
"aX c #C39779",
"sX c #A78C7A",
"dX c #A26654",
"fX c #5C3527",
"gX c #C44E33",
"hX c #D29687",
"jX c #DD6036",
"kX c #914430",
"lX c #B7A69D",
"zX c #2A1811",
"xX c #D8886E",
"cX c #D57B53",
"vX c #985B4A",
"bX c #D0A196",
"nX c #E6A87A",
"mX c #DC9B74",
"MX c #645852",
"NX c #9A8676",
"BX c #E0AD98",
"VX c #B67C5E",
"CX c #956454",
"ZX c #74564A",
"AX c #833321",
"SX c #5E3E2E",
"DX c #9B7264",
"FX c #CE8B5B",
"GX c #D4AE94",
"HX c #211E1C",
"JX c #733C2B",
"KX c #A49B8F",
"LX c #5C493F",
"PX c #351F17",
"IX c #907B6E",
"UX c #6B2816",
/* pixels */
"s g M M 0Xf.0X0X}.;X;XB.mXmX>X0X0X}.;XmX4.9X4.4.K.6XK.(.N GXx.L F -X4 4 3 p 1 & R K < * & % & R w T o.n.j.* 2 @ @ ..e.d .XnXf.k ",
"0.f.5 %.%.%.k i 8Xy M M N.M 8X8Xk 5 5 %.5 5 5 > z.g u.4 6.f a 7.l u 7.8 r '.B S S S 8 / B kX).).%XU.B r ' u l Z Z 7.T W K.f.V R.",
"5X5XcXi *.i *.i > q g h g g > 8X5 5 5 %.%.5 5 %.%.8Xm 9.W I...' C q.q.' C ' C C 7.7.C r U.AXAX).'.q.u C ' C u -.9 ' ; Z.4.5 V R.",
"x %.5 i U U *.i > q y g g h > 0.8X8Xq q q 5 %.%.( cXi m bX .< C 8 '.q._ 7 7 7 - - ,X~.gX'.).U.r u Z e - l Z - yX= C % v.6Xq ( k ",
"i > > m t.* *.i > q y q h 8X> > 8X> 5 5 5 8XcXi i cX> 4XP. .C q.q.q.gX_ ,X~.~.~.~.gXgX'.).).U.C 7 - jXjX- 7 ~.,X7 7 1 v.6XcX2 $ ",
"9.j.OXOXt s A.A.m 2X> > > > 8Xh 5 > > 2X0.h > 2X2X0.FX=Xd.f % r 8 7.% 7.8 r 8 8 r 8 { kXo.I a & @ e 9 l u 7.7.u l K p v.Q t c % ",
"v ].w.w.d.5.v ^.^.^.J @.@.@.@.b ~ ~ ~ G.b G.aXG.f (.b v.a.p.v.#XD.[ [ Z.V.H.v Z.W [ v.+.N n `.Q.Q.$.S.0 r.#XI.I.D.hXS.p.*XN s.[ ",
"&.A c.iX#.#.W.P.Q F..X.XF.F.6X.X.X<.<.rXA c.+XA qXA A W.N W.A &.+X+X#.H H H W.&.rX.XF.F.F.F.6XF..XrXz +XA <.$. .E.E.$.$.BXF.F.BX",
">X>XxX0XD.N ~ tX5XtXf.f.tXf.f.>X>Xf.tXz.(.z 6X9X9XnX;XM M mX;X;XmXB.@.Z.N  .}.}.f.5 x x x x 8.k %.5 tXE.rX>.;.9 2 $ $ 8.x x k k ",
"=.+ X.+ m.v.u.-.= X.+ $ $ 8.8.8.*.*.$ * J W.;XN.N.M M h g M N.M g 7Xs J j E.%.=.] h.O O O b.O O h.] =.z.6XxXU e e + + ) + @ + ) ",
"@ @ X.yXO.+.M.& 9 yX2 * 6 g.6 2 $ ;.:.` S.+X;XN.N.M g 7Xh M N.M FX7Xs J.W.~ =.O O O ] O O O ] ] h.) x 0.Q.>.8.) =.+ + ) @ @ ) XX",
") ) + yX,.E J.Y ;.< 2 g.L u.g.2 2 ;.9 R +.c.b FXM g h h g g M g 7X7XA.t (.,.- O O O ] O O ) ] O ) x h h 5.,.+ h.=.@ + + + $ k 5 ",
"+ 8.2 < J.a.^ t ;.2 $ g.l.L ` 2 6 * < ..D.j @.7XFXg 7X2X0.0.2X2X2XA.n.I D.,.- jXjXO O + ) O O + k x <Xi @X#X` * @ < + + + 8.k %.",
"6 G j.Y ^ w.H.e.R * 8.6 m 3 & 6 g.` :.R 0 N b FX=Xs A.A.s s A.A.A.-X&Xi.N  .u.U * i * ..U Z U =.cXx cX2X5.+.^ F Y G G G G L 0.0.",
"P.+.d.6.n *XH n bXb  .G.0 @X^ J r.@X@X#Xs.#.A W.(.aX5.I.(.(.L.E N N p.#.iXiXA <.<.<.$.[ [ G.aXb  .Q.`.E n +XW.n `.<.`.P.P.Q $. .",
"n P.$.s.$.bXP.rXrXz n P.d d 1.1.W f v.[ Q j z +XW.j W.*X#.c.c.#.j j *X*XW.z c.c.c.iXiXiXiX*XP.P.P.Q Q.S.S.hXE.4.4.4.E.E.~ B.xXL ",
"1 1 c # K :.6 6 ` w : : i.lX! : w j.j.F 4 F 4 4 L x.x.M.,.r.0 0 @X@Xr.J.O.m.m.F e.O.@X].N 0 4 u.x.L 6 3 t F u.z.z.5X5Xu.L w p 1 ",
"' q.q.r r l l ' '.S B D i.d J.K % c a 3 R 1 % 1 & ;.R w j.: : t e.: p c c # # 8 ' ' r [.1.CXOXL L 6 $ 6 L M.M.J xXl.G j.w 2.2.OX",
"7.q.q.S '.uXuXgX8 # / ; 1XV.m.1 R t t j.1 / o c % 1 w w a c } p w p # o # # 8 C _ ~.' [.KXi.VXz.l.g.g.6 6 6 G J.x.L 3 % r { : : ",
"7.C o { 8 K / 8 7.p p D pXHXpX X3 Y t ; B o _.} % 1 p w p c # # o o B ; # # 8 C _ ~./ 3.w.v J.,.xXl.6 ` ` 6 Y t t : } o 8 w ,.O.",
"' 8 ; { o o ; o # p # _.C.. . P SX2.2.JX3XvX} # 8 / 8 o o B B o B B S B 8 B B o ' gX# i.w.0 VXO.M.F F 4 4 t & c 2.o.o.n.w 4 O.m.",
"{ { ; ; ;  Xo.{ ; c T y.C..     . PXZXeXNX$XVX: } I o.o.o. X Xo.I I  XJXfX!.!.fXkX2.T NXlX1.v v v H.H.v ^.! m.! sX1.d.f G.5.v ^.",
"V.Z.W Z.W 1.V.H.H.^.$XNXk.    .     T.MXKXKXNX].6.w.w.].1.sXIXeXMXC.HXP . . . . T.MX$Xd.a.N p.H H n P.`.`.`.j c.A &.&.F.BXBXK.b ",
"BXBX6XF.F.F.n p.p.f aXZX,             . T.T.P k.MX1XeXeX1XLXk.T..                 T.CX4Xl.z.@.Q 4.>.>X>X>X>XQ.A .X}.f.5Xx tX%.<X",
"k ( <X( ( G W H Q.3 % !.T..                         , , .                         . pX% O X.) f.5 <XoX( R.h.l.`.4.5X( <XV V R.) ",
"b.b.b.b.b.U O.j ~ < C !.X ,                                                         . !.l X.XXV h.R.oX( R.V z.s.}.oXoX( V V XXXX",
"b.e e e O Z -XQ xX7 '.zX.                                                         . P , !...R.XXO V oXV V V u.(.}.Y.Y.oXoXV XXR.",
"X.e = e e Z -Xv.M._ ' AXP             .                                           P kXUX, !.K b.+ ( oXV h.b.9.S.>Xy Y.oXoX( ( R.",
"jX- - 7 C u : Z.4 C _ 7  XfXfXpX, .                                             . pXt.l !., pXr e XXV ] b.Z t $.}.z.tX5Xl.4XcXi ",
"s A.j.a OX&XDX1.W 4 F x.B.B.B.J ZX,                                           , T.LX,.Y : SXP PXT >.>.u.=XJ.I.z z j <.<.z j N E ",
"p.s.+.6.E +.6.d *X<.Q n z z z z a.k.                                        , HXX MXE b G.W 1XT.HXeX].E `.6XrX&.qXqXA A A A A qX",
"j [ f f 5.J b @.@.B.J @.r.,.@.#X^ C.. . . . .                             , HXX X ZXB.>X0XmX>.vXPXP HXk.LXZX1X1X1X[.z.>.0XL x.<.",
"N J s A.-Xs 4X4Xs s F t 9.9.a # _.k.HXP , .   .                         , X X X X LX=Xz.h M h k |  X!.PXzXP P P P !.| * m :.3 GX",
"p.J & & 3 ` m l.L 4X4 F u.4XG t.3XX X X SXfX, . . , , , , P P ,         P X X X X k.y.0.h h 0.g 5 5 k m a a a a n.9.*.m m U m  .",
"p.J * =.| | m g.0.u.G s 0Xg > t.fXX X C.t F pX  , SXo.kXkX X2.y.C.,     . X C.X X X k.OX> > h >X0Xk x * t.| U U | *.*.i * * ` D.",
"w.J m | | * i i | ;.* G h h i 2.k.X k.T cXcXI T.. SX* _ B a R ! $X3XzX.   T.3Xy.C.X X 3XcX*.x z.u.i <X<Xi * Z =.<Xk 8.=.* * 9.#X",
"1.sX&XOXj.1 t.t.% K K c a & 7.fXX X 3Xu.Y t.t.JX. P  X7.9.9.n.i.$XM.T zX  , 3X-X&XSXX LXs Y Y s 4X0.cXk k m | k ( k i | ` | &X5.",
"lXa.6.1.V.^.v ^.! O.! ! ^.! y.k.X C.H.I.0 0 @X! k.. C.3.! 3.i.].w.f i.HX. C.$XW 5.1XX MXd.v.+.6.E E L. . .L.L.Q.4.K.K.$.$.b [ lX",
"$.<.&.rXW.W.+X+X*XH H *Xj eXk.X k.sXj z #.#.*X*XeX. T.IXsX1.d.I.G.IXC.. pXV.$.+.d IXX MX+.d n <.<.W.<.Q K.$.Q n iXrXb hXhXB.hXD.",
"N.{.wXwXnXnX9X9X`.H z hXx.I !.pX Xl.l.tX>.>.>.r.C., P y.e.M.xXg.% PX, zXD ` j.t DXC.X 3XF 4 4 l.l.tXL G g.*.g.@.+XGXt.l 7 + ( XX",
"q q q y {.{.|.|.}.L.Q $ ,X~.q.'.= X.X.O $ $ ;.1 y.1Xy.R 6 $ $ 2 .._.kXB -.K / ; y.y.o.a R 1 & 2 + $ & % ..< < =Xj L.9.u _ X.V V ",
"> q y {.{.{.|.|.M $X@.:X,X,X,XjXh.h.R.$ 2 :.:.1 e.w.0 x $ + ) @ :.:.-.7 uXuXr %Xy.^ l.` # 8 K < < :.1 p K yX2 3 +.hX1 % u jXh.V ",
"8Xh y {.{.|.|.|.h ^.O.~.,X:X:XX.h.V ( * K 1 ..K : w.,.$ X.$ *.< 8 / uX_ ' 8 S ).[.#X4 & ; { % ;.2 :.1 1 ..2 & : f >.K ..l jX] R.",
"q q y y y Y.q q h 0 r.uX,X:X:XX.R.R.$ :./ / o S T W 4 :X:XyX2 uX/ K uXgXq.r %XAXDXs.! c ; ; % 2 2 :.& & & R a dX6.J 1 K l - ] XX",
"g y y y y y q q 2Xv 0 ;.= :X:XX.@ / # o B # B kXDXw.^ ` 2 2 ;.R w p % 7.o D  XvXV.p.H.dXI } c w t m.O.O.e.[.[.DXW ^.c # % ..m 8.",
"9X9X9X4.;X;XmXB.5.w.E ~ ~ B.,.4X4 ^.v ^ ! e.dXi.w.d d E E L.[ v.v.W 0 v V.V.1.lXd H a.a.d.v i.V.w.H #.H d a.lXlXd H +.Z.5.v v D.",
"qXA +X&.rXW.W.rXc.iXqXqXqXqXA #.n n <.Q bXD.#XD.I.b b b Q.K.E. . . .b ~ ~ G.D.G.D.b f L.bXw.].v V.+.s.[ Z.Z.0 0 #XS.E.E.hX,.J.r.",
"~ >.>.>.x.>.}.}. .L.Q.K.E.E.~ Q n B.g.6 6 ` ` U U * 6 ` 6 8.$ *.*.8.*.$ $ @ @ e :.;.t.& /.V.d e.S { D D D ; c # # 1 :.9 uX_ 8 B ",
"Y Y G 3 1 6 8.*.g.*.*.+ X.e ;.Z.E cX- < < < U Z 9 U U 9 = = = - = < 9 9 9 9 -.- 7 -.-.l a V.n 4 U.U.'.o D ; c # # p p / / o _.%X",
"A.s M.F F L m 6 R = :X- l 7 :.W +.3 - 2 2 @ < @ U t.U < = -.9 7 u u u l -.9 7 - - 9 = 9 j.H.d m.S B c a ; D D D 2.: : OX: } I T ",
"6 g.L M.,.M.Y 3 a uX_ 7 ..9 % 0 bX3 -.< < e e e = 9 < = - Z -.uXu u C u u C _ 7 = = yX< & H.s.m.D n.n.&XOXI o.o.o.T /.OXOX} I T ",
"yX6 Y M.x.F ` & 9.% l = = o _.H.[ j.-.9 -.- = = = = 9 9 -.l uX_ _ uXu C ' gX_ 7 - 7 7 -.K ^ w.e.2.n.2.I T T vXo._.D c } } ; D D ",
"7 9 3 F F w 1 / % a 1 9 / _.y.V.[ t & ;.;.2 ;.t.| * m G Y 3 * 2 ;.& % % % K K K l l l 9 & 3.sXi.[.e.: I T /.I /./.: : n.n.T /.n.",
"x.,.r.0 0 0 0 r.r.0 5.J ! ! 1.d n [ I.f L. .S.I.f  .$.P.E E GX .G.aX5.5.5.J J J.O.m.4 4 VXNXKXd p.p.a.6.+.(.v.+.s.s.6.d.d.+.d +.",
"&.&.&.rX+X+Xz +Xc.#.*XE 0 0 [ S.S. .$.s.6.[ S.Z.w.v.S.W W D.#X@X^ ^ r.^ ^ ^ ,.O.i.V.J 4 4 M.O.,.B.~ ~ ~ E.E. .f I.a.H GX4.K.K.BX",
"wXwXwXwXwXnXnXnXf [ O.e./.: F Y 3 m Y w : /.: dX3.m.c { ; ; D 2.2.I : /.} } ; _.vX@XY U * @ Z Z ....Z @ * | & 1 a 3.v.>.x *.& 3 ",
"oXY.Y.y y |.{.N.J.^ : T T 9.3 & K & p # o o # } [.e.o S S S { D 2.} ; D { S %X).D ^ ` @ =.@ e e @ e @ =.=.@ Z u ; vXZ.z.+ < -.< ",
"q Y.Y.y y |.{.M VX3.: I } w R w 9.9.p # o o % c [.m./ ' r r ; } } U.%XS S U.).AX3Xi.3 @ @ e b.] ] ] XX) XX) b.e a &X5.0.=.@ e @ ",
"y q Y.y |.{.wXM VX3./.D ; p a 9.w w p o # p p } CXe.8 q.r 8 o B { U.U.S S ).UXUXSXeXOX& @ b.X.O + @ O O ] ] O =.| s J.s @ + + =.",
"g q Y.|.N.N.wXN.VX3.I D o % # p t /.o r o o o D y.CX_.U.U.%X).).S U.%X%X%XAXUX!.SX1XCXn...- b.b.Z l - b.O ] <XXX@ t.3.e.& ) + * ",
"A.s s =X7X7X7X=X3.H.[.T n.n.c w &X2.{ { ; 2.2.o.CXi.[.dXdXdXdXdXT o.vXCXy.y.y.1XeXIXNXDX-X| 3 2Xm m s u.0.0.5 x 3 &Xv sX3.-X&X&X",
"[.3.3.! ! ^.3.! v ].d.W W I.I.d.1.sXi.i.v $X1.].lXd *Xc.c.#.#.H N s.N p.a.].].KX1.].p.p.p.f L.`.n j j j z <.F.Q +.s.d a.a.6.$XsX",
"H.! O.L x.M.4 m.O.r.#X@.~ K.6X+X+Xn E s.Q $.bX$.L.L.P.j E bXs.H j (.$.GXf aXaX6.d.f a.d H `.E N n j P.Q Q b b G.b f f d.a.N f @.",
"^.: uX~.7 C r '.'.r ' _ = $ x B.xXG L z.5X8.$ $ m G G =XF F 3.d.B.-Xt t -XJ.@.aXaXJ r.r.@.FX4X=X=X=Xt Y j.R R R Y m.m.-X^ @X4 G "
};
