/* XPM */
static char *c2b0974a200b4f208cb37d0bb95ae5bfAfW7cIYUHICw1FBj[] = {
/* columns rows colors chars-per-pixel */
"64 64 30 1 ",
"  c gray6",
". c #111111",
"X c gray9",
"o c gray10",
"O c #1F1E1E",
"+ c #202020",
"@ c gray15",
"# c #2A2A2A",
"$ c #2C2C2C",
"% c #323232",
"& c gray21",
"* c gray22",
"= c #3C3D3D",
"- c #414141",
"; c #464646",
": c #484848",
"> c #4E4E4E",
", c gray32",
"< c #555555",
"1 c gray35",
"2 c gray36",
"3 c #626262",
"4 c gray40",
"5 c #6A6A6A",
"6 c #6F6F6F",
"7 c #717171",
"8 c #767676",
"9 c #7B7B7B",
"0 c #7E7E7E",
"q c gray51",
/* pixels */
"8888889999998809880090000q09900009890q00999909999990090988988809",
"888888989888090099q99909q089900qq0990099990080998809990888988899",
"88888888988900990q0888900899099090090900900009899889889888888888",
"888888888889q0080909889q080900990099089q009qq9909989090999888888",
"888888889989999009988980q9998090qq0009009q0998099990998989888888",
"8888888990099889000999909890000009090000000qq0908099888999988888",
"88888898880009990098900099900q00q9000090q00q09908990988988998888",
"8888888898009909998899089990099009q00q000q0090q08990999088888888",
"88888889889989990989q09098989990q90090000qq09qqq9988989988888888",
"88880889880089999999q90q099909qq00000q090q0009899000988999888888",
"89988999990999009099990qq00009009999000qq00q09988999998q88888888",
"888889888990900909099000q9900qqqq09qq0q0000090088989990009888999",
"0889898000099899989900000009q0q00q0qq090q0qq90099999998809988998",
"988888899qq09890q099qqq99000q0q90q00980qq90q90999009790098898888",
"8989999999988099q9900q0q00qqq00q0q090990qq000089q93:<60988898888",
"8990099909099999990090qqq0qq080qqq00q0009qq0q09081&O#60989998890",
"890999990990999890090q0q09q00q0qqqq090q9qqq0q098:@@X=68889888990",
"89988999098990090qqq00qqqqqq00qq0qqqq00090q0q04=$:4$:98990899888",
"89988888908990900090qq0qqq00qqqq0qqq0q0qq00907;%>61$,00099909888",
"8888008800989090900q0qq0qq0qq0qqq00q000qqq0q6*@,88,O399989909888",
"8988908900q8989q0900q0q0q090000qq00090q990q0<%>809-&509999999998",
"0889888890999899990000000qq0qq0q08490q6>60q8;@4007;#709909998888",
"999888888999998099800qqqqq09000qq1*3q05@1006:@1909,#:60999009888",
"8999999889999889990q00qqqqq07>5902&,q94==3<:@o;9095:#:7999989988",
"9890998980990990000q000659qq8#>898#:7q3#o%%$-#*59099-&;698888998",
"899890999899qq0q0qqq0q03=40q7-%9q0;&>;$@o@290:%-790q4:+,69988888",
"99889809890899900qqqq905O2909<@308;.o&;:&#5007:+*,2652$#>0999989",
"9888999999000989qqq00q05*-00q2&-,%@O+:702&*40q7<*+$$$*o+>9099990",
"88899q98089988987<170q96;#6qq4$ @-<>+>6q82@18q0962:;:-<579090980",
"0998098809099893&%#*3qqq>&<8<%+O*688-*,q005790090998889009009999",
"088999900000907-$::&*9004%#&&--&$7094=@380000q00qq09qq9998998908",
"q9898090009906*#<09>%,985#o#:40<&>0003&=6099qq9qq090qq0980q89888",
"9898809990090<$>7005-#53=oo&0qq5:+48083=80909q0909q9qqqq9q089888",
"88088990qq093$=51->64#$O&<*&2q904%=3909000900qq909q90q9q00888998",
"889998890907-@<>O&O>5>o&59<**0q091@;79qq00099q09880qq900q0908988",
"8888889000q5&-6=&:%&67$&207<#,70qq<,7qqqqqq0900089q900q099098988",
"88889908990>@39;$%&;70<%-886;#20q08qqq00qqq000000000q00000900989",
"98999809998&%6q5>$=5909-%1097$*30990q090q0q0q00q089qq00999008088",
"888899q9006&:90076090004-$9qq1:<q009009qq0q0000q9099090090998898",
"88880090002$1900000090q9<#<89769qqq0qqq0990q00000qq0qqq090988988",
"98889000005+<qq099qq000q2%:0990009qqqqq990090q90qqqq000009989999",
"98898999805**800009q907,##409qqq990q0000qq00009qqqq0000q090990q9",
"89898089997<+;3479442;#&=280000q09qqq90q0q0000000qqqqqqq90090099",
"898988899906;&##*$*%O&;,4090090qq00qq0q00q0qqq099qqqqq0989888898",
"898899q9980965<:-;=>2469q90q000000q090090q990q0989q0009099998888",
"8988899090099098977990999q00q0090qq00909900090qq9900999099988899",
"889889998008899000900900q990000q009000000qq00qq0qqq9900009988990",
"888980908998909qqq900qqq00090qqq0090000qqqq00080q0090q0089988899",
"9980888898000989009000000q000qq00q0009990q09900qq090999088899808",
"8888888999qq0980q9900qq00990qqqq0q0qq0q090099099qqq9999q08008808",
"8899998899900q00q90qqq00000q0qqq009qq9qqqqq09900q098800099098998",
"9889988898889090990000q0000q00qq0q0000q0q00000090q99880000989099",
"9998888998009900980q00qq000q00qq0009qq0qqq0q00008989989909080999",
"89098900998980q0q0909qq090q000qqq0qqqqqq0q0090qq0080999909089888",
"8888880999999q99qqqq0q0qq000090q000900qqqqq9000q80008999089qq888",
"8888890098990qqq99q000qqqq00900q00900qqqqq00q090q008899898qq0889",
"888889909880qqq000q00000q0990q0q990090qqqq90000009q9899888009800",
"88998899990090q00q00qqq09099qqqq0qq0000q0q0qqq900998899089908899",
"8888898899999q9qqqq0qq099q00qqqqq0q0q09q909qqq009089890088989999",
"888888888890qq8qq0q0q9q99q0900qqq0000099990000090099998888998889",
"9888999989000q9qq909990q90000qqq09q0qq0099qq0990q099888889988889",
"888888890q0990900qq090q00q090qqqq090qqq000qq009qq099888899989989",
"9888888800090q00900q0qqqq0q90000qqq00qq0qq99099qq080998099889898",
"q088888998009099999qq0q90q00900qqq09qqq9099999q0q989099998998809"
};
