/* XPM */
static char *fad3a85ddff940348491ae90ddc79b10fW6n477WGacMQFHc[] = {
/* columns rows colors chars-per-pixel */
"64 64 204 2 ",
"   c #181512",
".  c #211E16",
"X  c #211E18",
"o  c #2B2416",
"O  c #242119",
"+  c #2A261E",
"@  c #3D2F17",
"#  c #3F3119",
"$  c #2D2A21",
"%  c #332D23",
"&  c #353126",
"*  c #383126",
"=  c #36322A",
"-  c #3B352B",
";  c #3E382C",
":  c #3D3931",
">  c #473618",
",  c #533F1D",
"<  c #453A27",
"1  c #423B2E",
"2  c #463E32",
"3  c #483F31",
"4  c #54401A",
"5  c #6D541C",
"6  c #735619",
"7  c #444037",
"8  c #4A4133",
"9  c #46433A",
"0  c #4E4638",
"q  c #514534",
"w  c #5C4D34",
"e  c #504739",
"r  c #544B3C",
"t  c #584F3E",
"y  c #5F5136",
"u  c #5A503F",
"i  c #624C25",
"p  c #685227",
"a  c #765B27",
"s  c #765E2C",
"d  c #66573B",
"f  c #7A6435",
"g  c #4F4A42",
"h  c #574E40",
"j  c #584F40",
"k  c #5C5343",
"l  c #5B564B",
"z  c #615745",
"x  c #695742",
"c  c #615847",
"v  c #645B4A",
"b  c #685E4C",
"n  c #625C51",
"m  c #6B614E",
"M  c #7F6741",
"N  c #72654F",
"B  c #676154",
"V  c #6E6453",
"C  c #716651",
"Z  c #766B53",
"A  c #7A6E55",
"S  c #70695D",
"D  c #7D755B",
"F  c #7B7364",
"G  c #767676",
"H  c #787877",
"J  c #7C7C7C",
"K  c #8E6A1E",
"L  c #9A731D",
"P  c #A47D1E",
"I  c #896720",
"U  c #8A6A25",
"Y  c #8F7026",
"T  c #987625",
"R  c #856D34",
"E  c #897239",
"W  c #A37B22",
"Q  c #847A5E",
"!  c #91795E",
"~  c #877E62",
"^  c #867966",
"/  c #947F64",
"(  c #9A7D60",
")  c #857F74",
"_  c #807F7E",
"`  c #AB841C",
"'  c #AC8626",
"]  c #B18F26",
"[  c #B18D2B",
"{  c #B29026",
"}  c #B3912C",
"|  c #A98739",
" . c #B18D33",
".. c #B59536",
"X. c #B7973C",
"o. c #B79839",
"O. c #B99B3D",
"+. c #9A8042",
"@. c #99834C",
"#. c #AE8A42",
"$. c #AF924B",
"%. c #B79948",
"&. c #AF985C",
"*. c #B89D55",
"=. c #BDA14A",
"-. c #BFA555",
";. c #898364",
":. c #97866B",
">. c #868076",
",. c #8B8271",
"<. c #80807F",
"1. c #8B857B",
"2. c #8F897F",
"3. c #948C7C",
"4. c #9C9278",
"5. c #B39B63",
"6. c #B09B6B",
"7. c #A48E70",
"8. c #A2967B",
"9. c #BAA265",
"0. c #B8A578",
"q. c #C1A858",
"w. c #C3AB5D",
"e. c #C5AF66",
"r. c #C6B16B",
"t. c #C9B56C",
"y. c #C1AC76",
"u. c #CAB771",
"i. c #CAB879",
"p. c #CFC07E",
"a. c #828282",
"s. c #8A8985",
"d. c #8B8B8A",
"f. c #938E84",
"g. c #908F8B",
"h. c #969087",
"j. c #99958A",
"k. c #9E998E",
"l. c #959492",
"z. c #989693",
"x. c #9C9995",
"c. c #9C9B99",
"v. c #A39B8D",
"b. c #A89F8B",
"n. c #A29C93",
"m. c #A29F99",
"M. c #B4A88C",
"N. c #A4A395",
"B. c #A4A19B",
"V. c #A9A798",
"C. c #ABA59B",
"Z. c #B4AB96",
"A. c #B4AC9E",
"S. c #BFB39C",
"D. c #A9A7A2",
"F. c #ADAAA4",
"G. c #AEADA9",
"H. c #B4AEA4",
"J. c #B1AEA9",
"K. c #B7B1A6",
"L. c #BEB4A4",
"P. c #B5B1AC",
"I. c #BAB4AD",
"U. c #BEB8AF",
"Y. c #BAB6B0",
"T. c #BBB8B1",
"R. c #BDBBBA",
"E. c #C1AF83",
"W. c #CBBB83",
"Q. c #C3B28C",
"!. c #C6B899",
"~. c #C0B7A6",
"^. c #C2B9A7",
"/. c #C4BAA8",
"(. c #C5BBAC",
"). c #C6BCAD",
"_. c #C9BFAE",
"`. c #C3BDB3",
"'. c #C8BFB0",
"]. c #C2BFBC",
"[. c #D1C283",
"{. c #D3C68B",
"}. c #D5C98D",
"|. c #D6CB93",
" X c #D6C996",
".X c #D8CD96",
"XX c #D9CE9B",
"oX c #DAD09F",
"OX c #C8C1AC",
"+X c #D2C3A3",
"@X c #DCD2A3",
"#X c #C7C3B7",
"$X c #CBC2B5",
"%X c #CDC5B9",
"&X c #D1CABE",
"*X c #C6C4C0",
"=X c #CAC7C2",
"-X c #CDC9C0",
";X c #D1CCC2",
":X c #D8D5C7",
">X c #DCDDD3",
",X c #E2D9C0",
"<X c #E0DFD6",
"1X c #E3E3D9",
/* pixels */
"G G G G G G J J J J J J G G J J G G J J J J J J J a.J J J J J J J J G J J a.J J J J J J J J J J J J J J J J J J G G J G G G J J ",
"G G G G G G J G J G G G J J J J J J a.J J J J J a.J G J J J J a.a.J J J J J J J J J J J G J J J G G J J J J J G G G J G G G J J ",
"G G G G G G G G J G G J J J J J J a.J G G G J J J G J J J J J J J J J J J J J J J J J J J J G J J G G J G G J G G G G G G G G G ",
"G G G G G G G G G G G J a.J J G J J J J G G J a.J G J J J J J J J J J J J G J a.J J J a.a.J J J J J G J J J J J J J G G G G G G ",
"G G G G G G G G J J G J J J J J J J J G G J G J a.J J J G J J J a.a.J J J J J J J a.J J J G J J J J J J J J G J G J G G G G G G ",
"G G G G G G G J J J J J J G G J J J J J J J J J J G J J J J J J J J J J J J J J J J J a.a.J J J G J J J G G G J J J J G G G G G ",
"G G G G G G J G G G J J J J J J J J J G J J J J J J J J J a.J J a.J J J J J J J a.J J a.J J J J G J J J J G G J G G J J G G G G ",
"G G G G G G G G J G J J J J J J J J G G J J J G J J J J J J J J J J a.J J a.J a.a.a.J J J J a.J G J J J J J J J G G G G G G G G ",
"G G G G G G G J G G J J G J J J J J G J a.J J J J G J G J J J J a.J J J J a.d.c.c.c.z.d.J a.a.a.J J G G J G J J G G G G G G G G ",
"G G G G J G G J G G J J G J J J J J J J a.J J a.J J J J J J a.a.J J J J J d.B.s.d.c.D.P.F.c.a.J J J J J J G G J J J G G G G G G ",
"G J J G G J J J J J J J J J J J J J J J J J J a.a.J J J J J J J J J J J J l.m.a.a.J J a.d.B.T.x.H J J J J J G a.G G G G G G G G ",
"G G G G G J G G G J J J J J J J J J J J J J J J a.J J J J a.a.a.a.J J a.a.l.D.a.J J J J J J s.D.s.J G J J J J J J J G G G J J J ",
"J G G J G J G J J J J J J G J J J G J J J J J J J J J J a.J a.J J a.J a.a.s.F.B.d._ a.a.J J J D.g.J J J J J G G J J J G G J J G ",
"J G G G G G G J J a.a.J J G J J a.J J J a.a.a.J J J J J a.J a.J J a.J J J G d.P.T.m.a.a.J J d.J.s.J J J J J J J J G G J G G G G ",
"G J G J J J J J J J J G G J J J a.J J J J a.J a.J J a.a.a.J J a.J a.J J J J J J l.x.a.j.D.G.B.l.a.J J J J J J J G G G J G G G G ",
"G J J J J J J J J J J J J J J J J J J J J J a.a.a.J a.a.J G J a.a.a.J J a.J J J J d.B.s.s.a.a.J a.J G J J J J J G J J J G G J J ",
"G J J J J J J J J J J J J J J G J J J J J a.J a.J J a.J J a.J a.a.a.a.J J J a.J a.x.B.J a.J J J J G G J J G G G G J G G G J J J ",
"G J J G G J J J J J G J J J a.a.s.d.d.d.s.s.d.d.d.d.d.d.s.s.d.d.s.d.d.d.d.s.s.s.s.m.h.s.d.s.s.d.s.a.a.J J J G J J J G J J G G G ",
"G J J G G G G G J J G J a.z.G.P.P.J.G.J.J.J.G.J.J.J.F.F.G.F.F.G.F.F.F.F.F.F.C.M.(./.Z.J.F.F.F.F.J.P.D.l.J J J J J J J J J G G G ",
"G G G G J J G G J J J s.R.].f.B g 9 9 9 9 9 9 9 9 9 9 9 9 9 9 9 9 9 9 9 9 9 y | .X{.i.| / 3.3.1.>.>.N.%XG.J J J G J J J J G G G ",
"G J G G J J G J J J d.*Xm.8 . . . . . . . . . . . . . . . . . . . . . . . . 4 $.oX{.e.W 0.).).)./.A.,.) #XR.a.J J J J J J J J G ",
"J G G J G G G G J l.=Xs.= . . . . . . . . . . . . . . . . . . . . . . O . o 6 y..X{.-.T M.(.(.(.(.(./.n.) K.G.a.J J J J G G G G ",
"J J J G G G G G J R.k.= . . . + $ & % - - % % % % % % % % % % % % % % % % < Y {.}.[.X.W S.(.(.(.(.(.(.(.A.) I.x.J J J J J G G G ",
"G J J J J J J G l.U.- O . . & 0 8 8 8 r k 8 8 8 8 8 8 8 8 8 8 8 8 8 8 8 8 p | .X{.[. .#.^.C.k.$X).(.(.(.).A.h.P.J J J G J J G G ",
"J G J J J J G J J.>.. # > , x m k e r u k 0 8 r k r 8 8 8 8 8 8 8 8 8 8 8 a *. X}.i.[ 5.L.n.A.%X%X(.(.(.).(.k.U.g.G G G G J J G ",
"G J J G J J J J Y.l o @ > i M ! :.^ V c k k r t k r 8 8 8 8 8 8 8 3 8 8 8 U r.|.}.r.' 0./.L.~.).%X).).(.(.).C.F.F.J J G G G G G ",
"J J G G J G J J P.2 . . % 1 1 r N ( 7.,.F b k k k e 8 8 8 8 8 8 8 8 8 8 w T W.}.}.q.' S.(.L.~.).%X).).(.).).H.v.#XJ J J J J G J ",
"J G G G J J J J J.= . O = r r e 8 8 x ( :.,.A m v e 8 0 u k 0 8 3 2 2 3 5  .{.}.{.%.| (.(.L.~.).%X'.'.).).).L.k.=XJ J J J J J J ",
"G G G J J a.J G F.= . O - e r k e 0 ; 1 x / :.;.A k 8 0 k k r 8 8 8 3 q I *..X}.{.o.$.`.(.L.~.`.%X'.'.`.).).U.k.-XJ J J J J G J ",
"J J J G J J G G J.= . O ; r k k e 0 0 0 ; 8 v.#X3.A z r k k r 8 e e 8 d L i..X}.p.[ 5.$X(.~.~.`.%X'.'._.'.).~.x.-XJ J J J J J J ",
"J G G J J J J J J.- O O ; k z z k r r k r q L.1X-Xk.Q N k k u 8 r k k s `  X|.|.u.] 0.$X(.~./.$X&X$X'.'.'.'./.x.-XG J J G J J G ",
"a.J G J G J J J J.- O O - k z c c k k c 2 3 4.&X<X:XN.~ N k k r u k d U ..oX}.|.w.[ Q.$X(.^.(.$X&X$X$X$X$X$X(.n.%XJ a.G J G G G ",
"J G J G G J J J J.- O O - k c z k c c c t $ 2 4.OX>X>XC.Q c r k k k d T r.oX|.|.=. .!.$X)./.(.$X&X$X$X$X$X$X(.n.;Xa.J G J G G G ",
"G G J G G J J J J.- O O = e v v c c c v v r X * :.OX1X>XN.D 0 k k v f '  X.X.X}.o.$./.$X)./.).$X&X$X$X$X$X$X(.n.;XJ G G G J J G ",
"G G J J J G G J P.: $ $ ; 0 r v c c v v c z r + & ~ OX:X`.M.Z k z V R ..@X|..X[.} *._.$X_.(.).$X&X$X$X$X$X$X(.n.;XJ J J G J G G ",
"G G G G G G J J P.: + % 1 r k v k k k k r j c k ; % Q Z.!.,XM.m c c Y -.@X.X.Xt.] 9.$X$X_.(.).$X&X$X$X$X$X$X(.n.-XJ J J G J G G ",
"G G G G J J J G P.: + % 8 b v c v r e e e r k v v 2   Z +X:Xb.Z c d W u.XX.X|.q.[ y.%X%X'.(.).$X&X$X$X$X$X$X(.n.-XJ J J J J G J ",
"J G J J J G J J P.: + $ e b c v b b r e r v v v v v 0 + V 4.,.A k s [ {..X.X|.=.} Q.%X%X$X).).$X&X%X$X$X$X$X).n.-XJ J J G J G G ",
"G G G G J J a.J I.: + $ 0 c c v v m v k b m b v v v v h - 1 d d t K O.XX.X.X{.X...!.%X%X$X).).$X;X%X%X$X%X%X(.n.%XJ J J G G J G ",
"G G G G J J J J Y.9 + $ 8 c c v v v v m C v v v v v v v k e r e w P q.oXXX.Xi.} %.$X%X%X$X).'.%X;X%X%X$X$X$XU.N.].J J G G J G G ",
"J G G G J J J J ].l O $ ; b v v v v v b b v v v v v k v k k r r s ` u.@X.X.Xt.} 9.%X%X%X$X(.'.%X;X%X%X$X$X%XH.F.G.J J G J J J J ",
"J G G J G J J J J.1.O $ % k v c v v v v v v b m v z k z k r j r U [  XoX.X.Xw.{ y.%X%X%X$XA.`.;X&X%X%X%X$X$Xn.I.l.J J J J J a.J ",
"G J G J G J G J z.=X8 $ $ ; k v v v v k k v c k k v k r r e e w T O.@XXX.X|.=.] Q.%X%X%X%X).$X&X%X%X%X%X%XI.n.P.J J J J J J J J ",
"G J G J G G G J J ].`.; $ $ 8 c v v b k k k r r r k r r r r e d P e.@XXXXX{.O.} ).%X%X%X%X%X%X%X%X%X%X%X`.2.T.z.G J G G G G J G ",
"G J G G J J a.J J s.=Xm.7 + % 0 z z v z c r r r r r r r r e e y Y W.@XXXXX[...%.$X%X%X%X%X%X%X%X%X%X%XH.j.P.D.a.J J J J G G G G ",
"G J G G G J J J J J d.Y.F.l $ + 1 e r k k e r r r r r r e e e r p +.E.W.{.r.' 9.%X%X%X%X%X%X$X$X(.H.j.m.T.D.a.J J J J G G G J J ",
"G G J G G J J J G J J J m.-Xn.n 2 e v V V S S S S S S S S S S S f @.6.@.@.R 5 ,.h.h.h.h.h.h.h.f.2.k.].].l.J J J J J J G G J J J ",
"G G G J G J J J G J J G J d.c.F.C.F.C.P.I.Y.Y.Y.I.I.I.P.I.Y.Y.Y.b.8.0.5.&.E f C.P.P.P.P.P.P.J.P.P.F.c.a.J a.J J G J J G G G J J ",
"J J G J G G G G J G J J J J G J a.a.<.a.a.a.a.a.a.s.a.a.a.s.s.a.a.s.1.3.4.Q D _ a.s.a._ _ a.a.s.s.<.J J J J J J G G G J J G J G ",
"G G G G G G G J J J a.a.J J G J a.J J J J a.a.J J J J J a.a.a.a.J a.J a.a.J a.J J J J J J J J J a.a.a.J J J J a.J G J J G G J G ",
"G G J J J J G G J J J J J a.J J a.J J a.a.a.J J J J J a.J a.a.a.J J J a.a.J a.a.a.a.a.J J J J J a.J J G G J J J J J J J G J J G ",
"J G G J J G G G J G G G J J J J J J J J J J a.J J J J a.J J a.a.J a.J J J J a.J a.J J J J J J J J a.J J G G J J J J J G J J J J ",
"J J J G G G G J J G J J J J J J J G J a.J J a.a.J J J a.J J a.a.J J J J a.a.J a.a.a.J a.<.J J J G J G J J G J J J J J G J J J J ",
"G J J J G J J J J J G J G J a.J a.J J J J a.a.J J J a.J J J a.a.a.J a.a.a.a.a.a.J a.J J J J a.a.J J G J J J J J J J J G J G G G ",
"G G G G G G J J J J J J J a.J J a.a.a.a.J a.J a.a.J J J J J J a.J J J J J J a.a.a.a.a.J J J J a.G J J J G J J J J G J a.a.G G G ",
"G G G G G J J J J G J J J a.a.a.J J a.J J J a.a.a.a.J J J J J a.J J J J J a.a.a.a.a.J J a.J J J a.J J G G J J G J G a.a.J G G J ",
"G G G G G J J J J G G J a.a.a.J J J a.J J J J J a.J J J J a.J a.J J J J J J a.a.a.a.J J J J J J J J a.J G J J G G G J J J G J J ",
"G G J J G G J J J J J J J J a.J J a.J J a.a.a.J J J J J a.a.a.a.J a.a.J J J J a.J a.J a.a.a.J J J J J G G J J J G J J J G G J J ",
"G G G G G J G G J J J J J a.J a.a.a.a.J a.a.J J J a.J J a.a.a.a.a.J a.J a.J J a.J J J a.a.a.J J J J G J G J J J G G J G J J J J ",
"G G G G G G G G G G J J a.a.G a.a.J a.J a.J a.J J a.J J J J a.a.a.J J J J J J J J J J J J J J J J J J J J J G G G G J J G G G J ",
"J G G G J J J J G J J J J a.J a.a.J J J J J J a.J J J J J a.a.a.J J a.J a.a.J J J J a.a.J J J J a.J J J G G G G G J J G G G G J ",
"G G G G G G G J J a.J J J J J J J a.a.J J J a.J J a.J J J a.a.a.a.J J J a.a.a.J J J a.a.J J J a.a.J J J G G G G J J J G J J G J ",
"J G G G G G G G J J J J J a.J J J J J a.J a.a.a.a.J a.J J J J J a.a.a.J J a.a.J a.a.J J J J J a.a.J G J J J G J J J G G J G J G ",
"a.J G G G G G J J G J J J J J J J J J a.a.J a.J J a.J J J J J a.a.a.J J a.a.a.J J J J J J J a.J a.J G J J J J J J G J J G G J J "
};
